<svg xmlns="http://www.w3.org/2000/svg" viewBox="0 0 227.3 228.4"><defs><style>.cls-1{fill:#fff;}</style></defs><title>ico_small</title><g id="Layer_2" data-name="Layer 2"><g id="Layer_4" data-name="Layer 4"><path class="cls-1" d="M220.7,117.3,157.3,19a41.6,41.6,0,0,0-67.9-2.7L8.6,121.7a41.6,41.6,0,0,0,18.3,64.2l105.7,39.8a40.8,40.8,0,0,0,14.7,2.7,41.5,41.5,0,0,0,32.1-15.2l38.5-47A41.5,41.5,0,0,0,220.7,117.3Zm-86.3,49.1h0l1.9,19.1a6.8,6.8,0,0,1-9.2,7.1L66.9,169.9,43,160.8a2.8,2.8,0,0,1-1.6-3.7h0a2.8,2.8,0,0,1,3.7-1.6l35.3,13.4,48.2-2.3-2.7-28.9-84.3,4a5.7,5.7,0,0,1-4.9-9.1h0l71.4-93.1h0A8.1,8.1,0,0,1,122,44.2l9.4,93.3h0Zm54.8-15a2.7,2.7,0,0,1,.4,3.9l-10.2,12.2L168.3,181a1.9,1.9,0,0,1-3.4-1.1L163.4,165l-2.9-28.9-6.9-68.3-.2-1.3-1.2-12.6a3,3,0,0,1,2.7-3.2h0a3,3,0,0,1,3.1,2.6l2.6,24.3,29.9,46.5a7,7,0,0,1-5.6,10.8l-19,.9,3.1,28.9,5.6-.2,10.7-12.7a2.8,2.8,0,0,1,3.9-.4Z"/></g></g></svg>
