<?xml version="1.0" encoding="utf-8"?>
<!-- Generator: Adobe Illustrator 23.0.3, SVG Export Plug-In . SVG Version: 6.00 Build 0)  -->
<svg version="1.1" id="Layer_1" xmlns="http://www.w3.org/2000/svg" xmlns:xlink="http://www.w3.org/1999/xlink" x="0px" y="0px"
	 viewBox="0 0 48 48" style="enable-background:new 0 0 48 48;" xml:space="preserve">
<style type="text/css">
	.st0{fill:#FFFFFF;}
</style>
<path class="st0" d="M26,23.3l5.4,5.3c0.4,0.4,0.6,0.8,0.6,1.3s-0.2,0.9-0.6,1.3c-0.4,0.4-0.8,0.6-1.3,0.6s-0.9-0.2-1.3-0.6
	l-5.8-5.6c-0.2-0.2-0.4-0.5-0.5-0.8c-0.1-0.3-0.2-0.6-0.2-1v-8.1c0-0.5,0.2-1,0.5-1.3c0.3-0.3,0.8-0.5,1.3-0.5
	c0.5,0,0.9,0.2,1.3,0.5c0.3,0.3,0.5,0.8,0.5,1.3V23.3z M24.4,43.3c-2.7,0-5.2-0.5-7.6-1.5c-2.4-1-4.4-2.4-6.2-4.2
	c-1.7-1.7-3.1-3.8-4.2-6.1s-1.6-4.9-1.6-7.5s0.5-5.2,1.6-7.5s2.4-4.3,4.2-6.1s3.8-3.1,6.2-4.1s4.9-1.5,7.5-1.5
	c2.7,0,5.3,0.6,7.7,1.7s4.6,2.7,6.4,4.6V8.1c0-0.5,0.2-0.9,0.5-1.3c0.3-0.3,0.7-0.5,1.3-0.5c0.5,0,0.9,0.2,1.3,0.5
	c0.4,0.4,0.5,0.8,0.5,1.3v7.2c0,0.7-0.2,1.2-0.7,1.7c-0.5,0.5-1,0.7-1.7,0.7h-7.3c-0.5,0-1-0.2-1.3-0.5c-0.3-0.3-0.5-0.8-0.5-1.3
	s0.2-1,0.5-1.3c0.3-0.3,0.8-0.5,1.3-0.5h2.4c-1.4-1.4-3-2.5-4.8-3.3c-1.8-0.8-3.7-1.2-5.6-1.2c-4.1,0-7.5,1.4-10.4,4.2
	s-4.3,6.1-4.3,10.1c0,4.1,1.4,7.6,4.3,10.5s6.3,4.3,10.4,4.3c3.7,0,6.8-1.2,9.3-3.5s4.1-5.3,4.9-8.8c0.2-0.5,0.5-0.9,1-1.2
	c0.5-0.3,1-0.4,1.6-0.3c0.7,0.1,1.2,0.4,1.6,1c0.3,0.6,0.4,1.2,0.3,1.9c-0.8,4.5-3,8.3-6.3,11.3C33.2,41.8,29.1,43.3,24.4,43.3z"/>
</svg>
