<?xml version="1.0" encoding="utf-8"?>
<!-- Generator: Adobe Illustrator 23.0.3, SVG Export Plug-In . SVG Version: 6.00 Build 0)  -->
<svg version="1.1" id="Layer_1" xmlns="http://www.w3.org/2000/svg" xmlns:xlink="http://www.w3.org/1999/xlink" x="0px" y="0px"
	 viewBox="0 0 960 931.5" style="enable-background:new 0 0 960 931.5;" xml:space="preserve">
<style type="text/css">
	.st0{fill:none;stroke:#FFFFFF;stroke-width:50;stroke-linecap:round;stroke-miterlimit:10;}
	.st1{fill:none;stroke:#FFFFFF;stroke-width:30;stroke-linecap:round;stroke-miterlimit:10;}
</style>
<title>favicon_11_8</title>
<g>
	<g id="Layer_6">
		<path class="st0" d="M25,476c16.5-34.9,66.9-128.8,171-166c13.8-5,37.3-13.1,69-14c120-3.3,207.6,101.6,219,117
			c40,54,62,115,112,171c16.7,18.9,36.4,35,58.3,47.5c14,7.9,67.5,38.7,129.7,30.5c100.3-13.3,148-118,151-125"/>
		<path class="st1" d="M68.7,258c73.6-76.6,139.9-75,203.3-79c59.7-1.4,80.8-8.1,133-7c59.2,1.2,84.2,7.6,99,26
			c6.8,8.5,10.6,20.7,18,45c10.3,33.8,8,43.9,16,66c5,13.8,14.4,27.4,33,54c22.6,32.4,45.8,64.3,68,97c34,50.2,34,56,50,69
			c42.2,34.2,92,33,92,33l0,0c4.5,0.1,9.1-0.5,13.4-1.8c22.5-7.3,38.2-25.4,58.6-64.2c15.9-30.3,29-55.5,42-97
			c7.7-24.6,20.5-52.4,12.7-92.3"/>
		<path class="st1" d="M627,35c-5,26.7-10.1,56.5-15,89c-2.6,17.2-5.6,39.9-2,69c2.2,18,3.3,27,10,34c16.3,17.1,41.5-0.1,86,6
			c43.2,5.9,48.3,26,78,25c19.5-0.6,46.8-10.3,79-52"/>
		<path class="st1" d="M53,564c41.1-38.1,73.3-72.4,97-99c43.8-49.3,54.4-67.2,83-77c46.9-16,96.6,12.9,126,30
			c57.3,33.4,87.2,80.5,103,106c21.9,35.3,35.3,72.6,62,147c26.6,74.1,33.1,101.3,59,111c17.5,6.6,22.7-2.9,84-9
			c34.3-3.4,39.1-1,81-4c21.3-1.5,51.1-4.3,87-10"/>
		<path class="st1" d="M708,861c-12.8,10.9-91.3,76-151,49c-17-7.7-25.6-20.8-50-60c-52.2-83.9-78.3-125.8-85-142
			c-42.5-102.3-18.3-141.7-67-188c-10.6-10.1-40.9-38.9-79-33c-30.4,4.7-54,29.5-63,55c-13.1,37,5.8,71.4,16,90
			c29.8,54.3,67.8,59.1,101,96c25.1,27.9,51,78,44,175"/>
		<path class="st1" d="M58,627c21.3,5.7,41.8,14.1,61,25c73.2,41.4,143.4,128.5,123,185c-1.9,5.4-4.6,10.4-8,15"/>
		<path class="st1" d="M678,345.8c-2.7,8.7-14.5,8.2,34.7,80.2c0,0,45.2,39.7,54.6,39.7c0,0,20.7-5.2,21.4-5.7
			c5.1-3.2,13-9.6,17-36.1c4.4-29.3-5.9-53.5-26.9-76.1c-9.2-9.9-27.3-33.9-61.6-28.7C701.1,321.7,683.9,326.7,678,345.8z"/>
		<path class="st1" d="M718,78c-1.3,1.9-18.5,27.2-7,56c1.1,2.8,12.8,30.7,42,35c20.9,3.1,42.2-7.1,54-26"/>
		<path class="st1" d="M219,96c28.1-13.7,66-23.7,98-25.1c33-1.4,45.1,13.4,99,12.1c61.8-1.4,78.1-5.7,90-18
			c14.6-15.1,17-36.2,17-50"/>
	</g>
</g>
</svg>
