<?xml version="1.0" encoding="utf-8"?>
<!-- Generator: Adobe Illustrator 23.0.3, SVG Export Plug-In . SVG Version: 6.00 Build 0)  -->
<svg version="1.1" id="Layer_1" xmlns="http://www.w3.org/2000/svg" xmlns:xlink="http://www.w3.org/1999/xlink" x="0px" y="0px"
	 viewBox="0 0 24 24" style="enable-background:new 0 0 24 24;" xml:space="preserve">
<style type="text/css">
	.st0{fill:none;}
	.st1{fill:#FFFFFF;}
</style>
<path class="st0" d="M0,0h24v24H0V0z"/>
<path class="st1" d="M12,1.3C6.1,1.3,1.3,6.1,1.3,12S6.1,22.7,12,22.7S22.7,17.9,22.7,12S17.9,1.3,12,1.3z M10.9,20.5
	C6.7,20,3.4,16.4,3.4,12c0-0.7,0.1-1.3,0.2-1.9l5.1,5.1v1.1c0,1.2,1,2.1,2.1,2.1V20.5z M18.3,17.8c-0.3-0.9-1.1-1.5-2-1.5h-1.1v-3.2
	c0-0.6-0.5-1.1-1.1-1.1H7.7V9.9h2.1c0.6,0,1.1-0.5,1.1-1.1V6.6h2.1c1.2,0,2.1-1,2.1-2.1V4.1c3.1,1.3,5.4,4.4,5.4,7.9
	C20.6,14.2,19.7,16.3,18.3,17.8z"/>
</svg>
