<?xml version="1.0" encoding="utf-8"?>
<!-- Generator: Adobe Illustrator 23.0.3, SVG Export Plug-In . SVG Version: 6.00 Build 0)  -->
<svg version="1.1" id="Layer_1" xmlns="http://www.w3.org/2000/svg" xmlns:xlink="http://www.w3.org/1999/xlink" x="0px" y="0px"
	 viewBox="0 0 24 24" style="enable-background:new 0 0 24 24;" xml:space="preserve">
<style type="text/css">
	.st0{fill:none;}
	.st1{fill:#FFFFFF;}
</style>
<title>ico_kofi</title>
<path class="st0" d="M0,0h24v24H0V0z"/>
<path class="st1" d="M17.6,4.8H2.4c-0.7,0-1.3,0.6-1.3,1.3V16c0,1.9,1.6,3.5,3.5,3.5h9.6c1.9,0,3.5-1.6,3.5-3.5v-0.7
	c2.9,0.1,5.4-2.1,5.5-5.1S21,4.9,18.1,4.8C17.9,4.8,17.8,4.8,17.6,4.8L17.6,4.8z M9.2,16.6c0,0-4.4-3.2-4.4-6C4.8,9.4,5.8,8.4,7,8.3
	c0.1,0,0.2,0,0.3,0c0.8,0,1.5,0.4,1.9,1c0.4-0.6,1.2-1,2-1c1.2-0.1,2.3,0.8,2.4,2c0,0.1,0,0.2,0,0.3C13.6,13.4,9.2,16.6,9.2,16.6z
	 M17.6,12.6V7.5c1.4,0.1,2.5,1.3,2.4,2.8C20,11.6,18.9,12.6,17.6,12.6L17.6,12.6z"/>
</svg>
