<svg xmlns="http://www.w3.org/2000/svg" xmlns:xlink="http://www.w3.org/1999/xlink" id="Layer_1" x="0" y="0" version="1.1" viewBox="0 0 24 24" xml:space="preserve" style="enable-background:new 0 0 24 24"><style type="text/css">.st0{fill:none}.st1{fill:#fff}</style><g><path d="M0,0h24v24H0V0z" class="st0"/><path d="M0,0h24v24H0V0z" class="st0"/></g><path d="M7,9.8H6c-1.1,0-2,0.9-2,2V20c0,1.1,0.9,2,2,2h12c1.1,0,2-0.9,2-2v-8.2c0-1.1-0.9-2-2-2h-1V5.3c0-2.8-2.2-5-5-5	s-5,2.2-5,5V6h2V5.3c0-1.7,1.3-3,3-3s3,1.3,3,3v4.4H9H7z M18,20H6v-8.2h12V20z" class="st1"/></svg>