<?xml version="1.0" encoding="utf-8"?>
<!-- Generator: Adobe Illustrator 23.0.3, SVG Export Plug-In . SVG Version: 6.00 Build 0)  -->
<svg version="1.1" id="Layer_1" xmlns="http://www.w3.org/2000/svg" xmlns:xlink="http://www.w3.org/1999/xlink" x="0px" y="0px"
	 viewBox="0 0 24 24" style="enable-background:new 0 0 24 24;" xml:space="preserve">
<style type="text/css">
	.st0{fill:none;}
	.st1{fill:#FFFFFF;}
</style>
<g>
	<path class="st0" d="M0,0h24v24H0V0z"/>
	<path class="st0" d="M0,0h24v24H0V0z"/>
</g>
<path class="st1" d="M7,9.8H6c-1.1,0-2,0.9-2,2V20c0,1.1,0.9,2,2,2h12c1.1,0,2-0.9,2-2v-8.2c0-1.1-0.9-2-2-2h-1V5.3c0-2.8-2.2-5-5-5
	s-5,2.2-5,5V6h2V5.3c0-1.7,1.3-3,3-3s3,1.3,3,3v4.4H9H7z M18,20H6v-8.2h12V20z"/>
</svg>
