<svg xmlns="http://www.w3.org/2000/svg" xmlns:xlink="http://www.w3.org/1999/xlink" id="Layer_1" x="0" y="0" version="1.1" viewBox="0 0 24 24" xml:space="preserve" style="enable-background:new 0 0 24 24"><style type="text/css">.st0,.st1{fill:none}.st1{display:none;stroke:#fff;stroke-width:1.5;stroke-linejoin:round;stroke-miterlimit:10}.st2,.st3{fill:#fff}.st3{display:none}</style><path d="M0,0h24v24H0" class="st0"/><rect width="21.6" height="14.7" x="1.2" y="5" class="st1"/><path d="M22.2,3.6L22,2.3l-0.9,0.9c-2.5,2.6-5,3.2-7.9,3.9C12,7.4,10.8,7.7,9.5,8.2C7.3,9,6.5,10.3,6.3,11.2	c-0.4,1.4,0.1,2.9,0.8,4c-1.7,0.4-3.6,0.5-5.6,0.3l-0.1,1.3C2,16.9,2.8,17,3.5,17c1.6,0,3.1-0.2,4.5-0.6c1.2,1.2,3.5,2.5,6,2.6	c0.2,0,0.4,0,0.5,0c1.9,0,3.8-0.7,5.3-2C22.5,14.5,23.4,10,22.2,3.6L22.2,3.6z M18.8,16c-1.4,1.2-3,1.8-4.8,1.7	c-1.9-0.1-3.5-1-4.6-1.8c6.3-2.1,10.2-7.2,11.8-9.7C21.9,11.9,20.3,14.7,18.8,16z" class="st2"/><path d="M-7.4,0.8" class="st3"/></svg>