<?xml version="1.0" encoding="utf-8"?>
<!-- Generator: Adobe Illustrator 23.0.3, SVG Export Plug-In . SVG Version: 6.00 Build 0)  -->
<svg version="1.1" id="Layer_1" xmlns="http://www.w3.org/2000/svg" xmlns:xlink="http://www.w3.org/1999/xlink" x="0px" y="0px"
	 viewBox="0 0 24 24" style="enable-background:new 0 0 24 24;" xml:space="preserve">
<style type="text/css">
	.st0{fill:none;}
	.st1{display:none;fill:none;stroke:#FFFFFF;stroke-width:1.5;stroke-linejoin:round;stroke-miterlimit:10;}
	.st2{fill:#FFFFFF;}
	.st3{display:none;fill:#FFFFFF;}
</style>
<path class="st0" d="M0,0h24v24H0"/>
<rect x="1.2" y="5" class="st1" width="21.6" height="14.7"/>
<path class="st2" d="M22.2,3.6L22,2.3l-0.9,0.9c-2.5,2.6-5,3.2-7.9,3.9C12,7.4,10.8,7.7,9.5,8.2C7.3,9,6.5,10.3,6.3,11.2
	c-0.4,1.4,0.1,2.9,0.8,4c-1.7,0.4-3.6,0.5-5.6,0.3l-0.1,1.3C2,16.9,2.8,17,3.5,17c1.6,0,3.1-0.2,4.5-0.6c1.2,1.2,3.5,2.5,6,2.6
	c0.2,0,0.4,0,0.5,0c1.9,0,3.8-0.7,5.3-2C22.5,14.5,23.4,10,22.2,3.6L22.2,3.6z M18.8,16c-1.4,1.2-3,1.8-4.8,1.7
	c-1.9-0.1-3.5-1-4.6-1.8c6.3-2.1,10.2-7.2,11.8-9.7C21.9,11.9,20.3,14.7,18.8,16z"/>
<path class="st3" d="M-7.4,0.8"/>
</svg>
