<?xml version="1.0" encoding="utf-8"?>
<!-- Generator: Adobe Illustrator 23.0.3, SVG Export Plug-In . SVG Version: 6.00 Build 0)  -->
<svg version="1.1" id="Layer_1" xmlns="http://www.w3.org/2000/svg" xmlns:xlink="http://www.w3.org/1999/xlink" x="0px" y="0px"
	 viewBox="0 0 24 24" style="enable-background:new 0 0 24 24;" xml:space="preserve">
<style type="text/css">
	.st0{fill:none;}
	.st1{fill:#FFFFFF;}
</style>
<path class="st0" d="M0,0h24v24H0V0z"/>
<path class="st1" d="M17.3,13.3h0.4c2.9,0,5-1.5,5.1-1.5l0.6-0.4L23,10.8c-0.1-0.2-2.7-4.4-6.7-4.4l0,0c-1.7,0-2.9,0.7-3.7,1.4
	c-0.3-1.3-1-3.3-3-4.5c-3.2-1.9-7.9-0.1-8.1,0L0.9,3.5L1,4.1c0,0.2,1.1,4,4,6.2c1,0.7,2,0.9,3,0.9c1.1,0,2.2-0.3,3-0.7v8.4
	c-4.9,0.3-6.3,2.6-6.3,2.6h14.8c0,0-1.6-2.3-6.5-2.6v-7.4C14.1,12.3,15.6,13.2,17.3,13.3z M4.7,5.2c2.7,1.2,4.6,2.8,5.7,4
	c-1.2,0.5-3,0.9-4.4-0.1C4.1,7.8,3.1,5.5,2.7,4.4C4,4,6.8,3.4,8.8,4.6c1.4,0.8,2,2.1,2.3,3.1C9.9,6.8,7.8,5.5,4.7,5.2z M13.8,8.7
	c0.6-0.4,1.4-0.8,2.5-0.8l0,0c2.3,0,4.2,2,5,3c-0.8,0.4-2.2,0.9-3.9,0.9c-1.5-0.1-2.9-1-3.8-1.7c1.1-0.3,3-0.5,5.7,0.2
	C16.7,8.9,14.9,8.7,13.8,8.7z"/>
</svg>
