<?xml version="1.0" encoding="utf-8"?>
<!-- Generator: Adobe Illustrator 23.0.3, SVG Export Plug-In . SVG Version: 6.00 Build 0)  -->
<svg version="1.1" id="Layer_1" xmlns="http://www.w3.org/2000/svg" xmlns:xlink="http://www.w3.org/1999/xlink" x="0px" y="0px"
	 viewBox="0 0 24 24" style="enable-background:new 0 0 24 24;" xml:space="preserve">
<style type="text/css">
	.st0{fill:none;}
	.st1{fill:#FFFFFF;}
	.st2{fill:none;stroke:#FFFFFF;stroke-width:1.5;stroke-linejoin:round;stroke-miterlimit:10;}
</style>
<path class="st0" d="M0,0h24v24H0"/>
<circle class="st1" cx="12" cy="12" r="6.1"/>
<path class="st2" d="M12.5,2.6l1.2,1.3c0.2,0.2,0.5,0.3,0.8,0.2l1.7-0.5c0.4-0.1,0.9,0.1,0.9,0.5l0.4,1.8c0.1,0.3,0.3,0.5,0.6,0.6
	l1.8,0.4c0.4,0.1,0.7,0.5,0.5,0.9l-0.5,1.7c-0.1,0.3,0,0.6,0.2,0.8l1.3,1.2c0.3,0.3,0.3,0.8,0,1.1l-1.3,1.2
	c-0.2,0.2-0.3,0.5-0.2,0.8l0.5,1.7c0.1,0.4-0.1,0.9-0.5,0.9l-1.8,0.4c-0.3,0.1-0.5,0.3-0.6,0.6l-0.4,1.8c-0.1,0.4-0.5,0.7-0.9,0.5
	l-1.7-0.5c-0.3-0.1-0.6,0-0.8,0.2l-1.2,1.3c-0.3,0.3-0.8,0.3-1.1,0l-1.2-1.3c-0.2-0.2-0.5-0.3-0.8-0.2l-1.7,0.5
	c-0.4,0.1-0.9-0.1-0.9-0.5l-0.4-1.8c-0.1-0.3-0.3-0.5-0.6-0.6l-1.8-0.4c-0.4-0.1-0.7-0.5-0.5-0.9l0.5-1.7c0.1-0.3,0-0.6-0.2-0.8
	l-1.3-1.2c-0.3-0.3-0.3-0.8,0-1.1l1.3-1.2C4.1,10,4.2,9.7,4.1,9.5L3.6,7.8C3.4,7.3,3.7,6.9,4.1,6.8l1.8-0.4c0.3-0.1,0.5-0.3,0.6-0.6
	l0.4-1.8c0.1-0.4,0.5-0.7,0.9-0.5l1.7,0.5c0.3,0.1,0.6,0,0.8-0.2l1.2-1.3C11.7,2.2,12.3,2.2,12.5,2.6z"/>
</svg>
