<svg xmlns="http://www.w3.org/2000/svg" xmlns:xlink="http://www.w3.org/1999/xlink" id="Layer_1" x="0" y="0" version="1.1" viewBox="0 0 24 24" xml:space="preserve" style="enable-background:new 0 0 24 24"><style type="text/css">.st0{fill:none}.st1{fill:#fff}</style><path d="M0,0h24v24H0V0z" class="st0"/><polygon points="22.1 14 19.7 15.4 22 16.8 21.2 18.3 18.8 16.9 18.8 19.8 17 19.8 17 15.9 12.9 13.5 12.9 18.3 16.2 20.3 15.4 21.8 12.9 20.3 12.9 23.1 11.1 23.1 11.1 20.3 8.6 21.8 7.8 20.3 11.1 18.3 11.1 13.5 7 15.9 7 19.8 5.2 19.8 5.2 16.9 2.8 18.3 2 16.8 4.3 15.4 1.9 14 2.7 12.5 6.1 14.4 10.3 12 6.1 9.6 2.7 11.5 1.9 10 4.3 8.6 2 7.2 2.8 5.7 5.2 7.1 5.2 4.2 7 4.2 7 8.1 11.1 10.5 11.1 5.7 7.8 3.8 8.6 2.2 11.1 3.7 11.1 .9 12.9 .9 12.9 3.7 15.4 2.2 16.2 3.8 12.9 5.7 12.9 10.5 17 8.1 17 4.2 18.8 4.2 18.8 7.1 21.2 5.7 22 7.2 19.7 8.6 22.1 10 21.3 11.5 17.9 9.6 13.7 12 17.9 14.4 21.3 12.5" class="st1"/></svg>