<svg xmlns="http://www.w3.org/2000/svg" viewBox="0 0 24 24"><defs><style>.cls-1{fill:none;}.cls-2{fill:#fff;}</style></defs><title>v_config_1</title><g id="Layer_2" data-name="Layer 2"><g id="Layer_1-2" data-name="Layer 1"><path class="cls-1" d="M0,0H24V24H0Z"/><path class="cls-2" d="M13.81,1.34a10.8,10.8,0,1,0,8.81,8.81A10.81,10.81,0,0,0,13.81,1.34ZM13.6,9.53h-3a2,2,0,0,0-1.17.39h0a3.22,3.22,0,0,1-1.87.64L5,10.59a.92.92,0,0,1-.9-1.19,8.29,8.29,0,0,1,15.71-.12.93.93,0,0,1-.89,1.21H16.61a3.29,3.29,0,0,1-1.87-.59h0A1.94,1.94,0,0,0,13.6,9.53ZM5,13.39l2.74.17a2.09,2.09,0,0,1,1.79.87l.8,1.22a1.94,1.94,0,0,1,.31.9L10.85,19a.92.92,0,0,1-1.14,1,8.31,8.31,0,0,1-5.6-5.38A.92.92,0,0,1,5,13.39ZM13.2,19l.15-2.06a2.26,2.26,0,0,1,.33-1.16l.92-1.35a1.88,1.88,0,0,1,1.46-.83l2.85-.17a.91.91,0,0,1,.93,1.18,8.28,8.28,0,0,1-5.49,5.34A.91.91,0,0,1,13.2,19Z"/></g></g></svg>