<?xml version="1.0" encoding="utf-8"?>
<!-- Generator: Adobe Illustrator 23.0.3, SVG Export Plug-In . SVG Version: 6.00 Build 0)  -->
<svg version="1.1" id="Layer_1" xmlns="http://www.w3.org/2000/svg" xmlns:xlink="http://www.w3.org/1999/xlink" x="0px" y="0px"
	 viewBox="0 0 24 24" style="enable-background:new 0 0 24 24;" xml:space="preserve">
<style type="text/css">
	.st0{fill:none;}
	.st1{fill:#FFFFFF;}
</style>
<path class="st0" d="M0,0h24v24H0V0z"/>
<path class="st1" d="M14.5,17.6c1.7-1,2.4-2.3,2.6-6.5c-0.5-0.6-0.8-0.9-0.8-1.3C16,5.4,15.6,3,12,3l0,0C8.4,3,8,5.4,7.7,9.8
	c0,0.4-0.3,0.7-0.8,1.3c0.2,4.2,1.1,5.6,2.6,6.5l0-1c0-1.1,0.9-2,1.9-2h1.1c1.1,0,1.9,0.9,1.9,1.9L14.5,17.6z M13.6,4.8
	C15,6.3,14.9,10,14.9,10s-0.4,0.8-2.9,0.8h0c-2.5,0-2.9-0.8-2.9-0.8s-0.2-3.8,1.3-5.2c0,0,0.4-0.2,1.6-0.2S13.6,4.8,13.6,4.8z
	 M13.2,16.8c0-0.5-0.4-0.9-0.9-1H12h-0.3c-0.5,0-0.9,0.4-0.9,1v3.7c0,0.4,0.3,0.6,0.6,0.6h1.1c0.4,0,0.6-0.3,0.6-0.6V16.8z"/>
</svg>
