# Blender v2.92.0 OBJ File: ''
# www.blender.org
mtllib vergemarker.mtl
o vergemarker_black
v 0.054932 0.765712 -0.020640
v -0.054932 0.765712 -0.020640
v -0.054932 0.765712 0.020640
v 0.054932 0.765712 0.020640
v -0.054932 0.533687 0.020640
v -0.054932 0.533687 -0.020640
v 0.054932 0.533687 -0.020640
v 0.054932 0.533687 0.020640
v 0.054932 -0.174946 0.020640
v 0.054932 0.251175 0.020640
v -0.054932 0.251175 0.020640
v -0.054932 -0.174946 0.020640
v -0.054932 0.251175 -0.020640
v -0.054932 -0.174946 -0.020640
v 0.054932 -0.174946 -0.020640
v 0.054932 0.251175 -0.020640
v 0.038096 0.748875 0.020640
v 0.038096 0.550523 0.020640
v -0.038096 0.550523 0.020640
v -0.038096 0.748875 0.020640
vt 0.625000 0.500000
vt 0.875000 0.500000
vt 0.875000 0.750000
vt 0.625000 0.750000
vt 0.552224 0.000000
vt 0.625000 0.000000
vt 0.625000 0.250000
vt 0.552224 0.250000
vt 0.552224 0.500000
vt 0.552224 0.750000
vt 0.375000 0.750000
vt 0.463612 0.750000
vt 0.463612 1.000000
vt 0.375000 1.000000
vt 0.375000 0.000000
vt 0.463612 0.000000
vt 0.463612 0.250000
vt 0.375000 0.250000
vt 0.375000 0.500000
vt 0.463612 0.500000
vt 0.619719 0.788312
vt 0.557505 0.788312
vt 0.557505 0.961688
vt 0.552224 1.000000
vt 0.619719 0.961688
vt 0.625000 1.000000
vn 0.5774 0.5774 -0.5774
vn -0.5774 0.5774 -0.5774
vn -0.5774 0.5774 0.5774
vn 0.5774 0.5774 0.5774
vn -0.7071 -0.0000 0.7071
vn -0.7071 0.0000 -0.7071
vn 0.7071 0.0000 -0.7071
vn 0.7071 -0.0000 0.7071
vn 0.0000 -0.0000 1.0000
usemtl Default_OBJ
s 1
f 1/1/1 2/2/2 3/3/3 4/4/4
f 5/5/5 3/6/3 2/7/2 6/8/6
f 7/9/7 1/1/1 4/4/4 8/10/8
f 6/8/6 2/7/2 1/1/1 7/9/7
f 9/11/8 10/12/8 11/13/5 12/14/5
f 12/15/5 11/16/5 13/17/6 14/18/6
f 15/19/7 16/20/7 10/12/8 9/11/8
f 14/18/6 13/17/6 16/20/7 15/19/7
f 17/21/9 18/22/9 8/10/8 4/4/4
f 18/22/9 19/23/9 5/24/5 8/10/8
f 20/25/9 17/21/9 4/4/4 3/26/3
f 19/23/9 20/25/9 3/26/3 5/24/5
o vergemarker_white_bollard.001
v -0.054932 0.251175 -0.020640
v -0.054932 0.533687 -0.020640
v 0.054932 0.533687 -0.020640
v 0.054932 0.251175 -0.020640
v 0.054932 0.533687 0.020640
v 0.054932 0.251175 0.020640
v -0.054932 0.251175 0.020640
v -0.054932 0.533687 0.020640
vt 0.463612 0.250000
vt 0.552224 0.250000
vt 0.552224 0.500000
vt 0.463612 0.500000
vt 0.552224 0.750000
vt 0.463612 0.750000
vt 0.463612 0.000000
vt 0.552224 0.000000
vt 0.552224 1.000000
vt 0.463612 1.000000
vn 0.0000 0.0000 -1.0000
vn 1.0000 -0.0000 0.0000
vn -1.0000 0.0000 0.0000
vn 0.0000 -0.0000 1.0000
usemtl Default_OBJ
s 1
f 21/27/10 22/28/10 23/29/10 24/30/10
f 24/30/11 23/29/11 25/31/11 26/32/11
f 27/33/12 28/34/12 22/28/12 21/27/12
f 26/32/13 25/31/13 28/35/13 27/36/13
o vergemarker_reflect
v 0.038096 0.550523 0.020640
v 0.038096 0.748875 0.020640
v -0.038096 0.748875 0.020640
v -0.038096 0.550523 0.020640
vt 0.557505 0.788312
vt 0.619719 0.788312
vt 0.619719 0.961688
vt 0.557505 0.961688
vn 0.0000 -0.0000 1.0000
usemtl Default_OBJ
s 1
f 29/37/14 30/38/14 31/39/14 32/40/14
