# Blender v2.92.0 OBJ File: ''
# www.blender.org
o Cube
v 0.146880 1.012310 -0.115592
v 0.331604 -0.107399 -0.115592
v 0.146880 1.012310 0.115592
v 0.331604 -0.107399 0.115592
v -0.146880 1.012310 -0.115592
v -0.331604 -0.107399 -0.115592
v -0.146880 1.012310 0.115592
v -0.331604 -0.107399 0.115592
vt 0.449265 0.293062
vt 0.009371 0.293062
vt 0.009371 0.203449
vt 0.449265 0.203449
vt 0.449265 0.382908
vt 0.009371 0.382908
vt 0.009371 0.293295
vt 0.449265 0.293295
vt 0.013769 0.415035
vt 0.444731 0.486133
vt 0.444731 0.599198
vt 0.013769 0.670296
vt 0.015958 0.685414
vt 0.441286 0.755583
vt 0.441286 0.867169
vt 0.015958 0.937337
vt 0.463473 0.721146
vt 0.463473 0.620196
vt 0.542919 0.620196
vt 0.542919 0.721146
vn -0.7349 0.1212 0.6673
vn -0.5241 0.6176 0.5864
vn -0.5241 0.6176 -0.5864
vn -0.7349 0.1212 -0.6673
vn 0.7349 0.1212 -0.6673
vn 0.5241 0.6176 -0.5864
vn 0.5241 0.6176 0.5864
vn 0.7349 0.1212 0.6673
s 1
f 8/1/1 7/2/2 5/3/3 6/4/4
f 2/5/5 1/6/6 3/7/7 4/8/8
f 6/9/4 5/10/3 1/11/6 2/12/5
f 4/13/8 3/14/7 7/15/2 8/16/1
f 1/17/6 5/18/3 7/19/2 3/20/7
