<svg xmlns="http://www.w3.org/2000/svg" xmlns:svg="http://www.w3.org/2000/svg" xmlns:xlink="http://www.w3.org/1999/xlink" id="svg2" width="329.778" height="406.007" version="1.1" viewBox="0 0 329.778 406.007"><defs id="defs4"><linearGradient id="linearGradient967"><stop id="stop963" offset="0" style="stop-color:#c2c2c2;stop-opacity:1"/><stop id="stop965" offset="1" style="stop-color:#9f9f9f;stop-opacity:1"/></linearGradient><linearGradient id="linearGradient969" x1="660.067" x2="658.458" y1="6.6" y2="108.776" gradientTransform="translate(-45.254833,0.35355338)" gradientUnits="userSpaceOnUse" xlink:href="#linearGradient967"/></defs><metadata id="metadata7"/><g id="layer1" transform="translate(-399.13437,-122.79051)"><rect id="rect1017" width="329.778" height="406.007" x="399.134" y="122.791" ry="7.014" style="fill:#eee;fill-opacity:1;fill-rule:nonzero;stroke:none;stroke-width:1.59331;stroke-linecap:round;stroke-linejoin:round;stroke-miterlimit:4;stroke-dasharray:none;stroke-opacity:1"/><g id="g1015" transform="translate(43.778173,191.04163)"><rect style="fill:#9f9f9f;fill-opacity:1;fill-rule:nonzero;stroke:none;stroke-width:2.2995;stroke-linecap:round;stroke-linejoin:round;stroke-miterlimit:4;stroke-dasharray:none;stroke-opacity:1" id="rect1002" width="82.49" height="90.47" x="398.758" y="178.747" ry="8.397" transform="rotate(-16.342822)"/><g id="g1000" transform="rotate(16.320529,538.13563,-184.89727)"><rect id="rect961" width="107.834" height="115.966" x="547.186" y="1.65" ry="4.596" style="fill:url(#linearGradient969);fill-opacity:1;fill-rule:nonzero;stroke:#fff;stroke-width:5.398;stroke-linecap:round;stroke-linejoin:round;stroke-miterlimit:4;stroke-dasharray:none"/><g style="stroke:#fff;stroke-width:13.0708;stroke-miterlimit:4;stroke-dasharray:none;stroke-opacity:1" id="g875" transform="matrix(0.17265471,0,0,0.17265471,512.49324,-6.3296456)"><rect style="color:#000;clip-rule:nonzero;display:inline;overflow:visible;visibility:visible;opacity:1;isolation:auto;mix-blend-mode:normal;color-interpolation:sRGB;color-interpolation-filters:linearRGB;solid-color:#000;solid-opacity:1;fill:#ccc;fill-opacity:1;fill-rule:evenodd;stroke:#fff;stroke-width:13.0708;stroke-linecap:round;stroke-linejoin:round;stroke-miterlimit:4;stroke-dasharray:none;stroke-dashoffset:0;stroke-opacity:1;marker:none;color-rendering:auto;image-rendering:auto;shape-rendering:auto;text-rendering:auto;enable-background:accumulate" id="rect3338" width="491.106" height="449.998" x="270" y="107.362"/><rect style="color:#000;clip-rule:nonzero;display:inline;overflow:visible;visibility:visible;opacity:1;isolation:auto;mix-blend-mode:normal;color-interpolation:sRGB;color-interpolation-filters:linearRGB;solid-color:#000;solid-opacity:1;fill:#fff;fill-opacity:1;fill-rule:evenodd;stroke:#fff;stroke-width:13.0708;stroke-linecap:round;stroke-linejoin:round;stroke-miterlimit:4;stroke-dasharray:none;stroke-dashoffset:0;stroke-opacity:1;marker:none;color-rendering:auto;image-rendering:auto;shape-rendering:auto;text-rendering:auto;enable-background:accumulate" id="rect3342" width="491.106" height="210" x="270" y="107.362"/><path style="color:#000;clip-rule:nonzero;display:inline;overflow:visible;visibility:visible;opacity:1;isolation:auto;mix-blend-mode:normal;color-interpolation:sRGB;color-interpolation-filters:linearRGB;solid-color:#000;solid-opacity:1;fill:#ccc;fill-opacity:1;fill-rule:evenodd;stroke:#fff;stroke-width:13.0708;stroke-linecap:round;stroke-linejoin:round;stroke-miterlimit:4;stroke-dasharray:none;stroke-dashoffset:0;stroke-opacity:1;marker:none;paint-order:stroke;color-rendering:auto;image-rendering:auto;shape-rendering:auto;text-rendering:auto;enable-background:accumulate" id="path3344" d="m 300,317.36255 38.46147,-53.53818 60.53097,-45.16084 15.88277,18.57394 13.61285,-38.68356 8.20133,-2.98188 13.3106,-28.2093 180,179.99979"/><path style="color:#000;clip-rule:nonzero;display:inline;overflow:visible;visibility:visible;opacity:1;isolation:auto;mix-blend-mode:normal;color-interpolation:sRGB;color-interpolation-filters:linearRGB;solid-color:#000;solid-opacity:1;fill:#b3b3b3;fill-opacity:1;fill-rule:evenodd;stroke:#fff;stroke-width:13.0708;stroke-linecap:round;stroke-linejoin:round;stroke-miterlimit:4;stroke-dasharray:none;stroke-dashoffset:0;stroke-opacity:1;marker:none;paint-order:stroke;color-rendering:auto;image-rendering:auto;shape-rendering:auto;text-rendering:auto;enable-background:accumulate" id="path3390-0" d="m 180,60 c 4.09311,16.474688 7.71219,33.067277 10.85156,49.75 2.38256,12.66097 4.48857,25.37408 6.31641,38.12695 l -22.06445,-7.16015 -46.11133,-29.41602 5.32422,46.42578 -1.61524,24.78711 10.05274,30.37695 73.18554,-11.75585 L 300,180 252.19922,102.56641 242.5,117.5 215.375,95.375 Z" transform="translate(270,107.36227)"/><path id="path3358" d="m 419.99999,347.36252 81.89918,-74.42959 18.50574,-9.68009 23.6512,-44.18894 25.94388,-21.70121 179.99999,179.99979" style="color:#000;clip-rule:nonzero;display:inline;overflow:visible;visibility:visible;opacity:1;isolation:auto;mix-blend-mode:normal;color-interpolation:sRGB;color-interpolation-filters:linearRGB;solid-color:#000;solid-opacity:1;fill:#ccc;fill-opacity:1;fill-rule:evenodd;stroke:#fff;stroke-width:13.0708;stroke-linecap:round;stroke-linejoin:round;stroke-miterlimit:4;stroke-dasharray:none;stroke-dashoffset:0;stroke-opacity:1;marker:none;paint-order:stroke;color-rendering:auto;image-rendering:auto;shape-rendering:auto;text-rendering:auto;enable-background:accumulate"/><path style="color:#000;clip-rule:nonzero;display:inline;overflow:visible;visibility:visible;opacity:1;isolation:auto;mix-blend-mode:normal;color-interpolation:sRGB;color-interpolation-filters:linearRGB;solid-color:#000;solid-opacity:1;fill:#b3b3b3;fill-opacity:1;fill-rule:evenodd;stroke:#fff;stroke-width:13.0708;stroke-linecap:round;stroke-linejoin:round;stroke-miterlimit:4;stroke-dasharray:none;stroke-dashoffset:0;stroke-opacity:1;marker:none;paint-order:stroke;color-rendering:auto;image-rendering:auto;shape-rendering:auto;text-rendering:auto;enable-background:accumulate" id="path3386" d="m 569.99999,197.36269 35.9388,80.91289 v 30.11038 30.11038 l 22.45864,19.46652 c 6.52453,-6.45031 14.14893,-11.78526 22.44431,-15.70477 14.8245,-7.00447 31.33823,-9.35959 47.17057,-13.6217 6.42776,-1.73037 12.90672,-3.85419 18.21343,-7.87277 1.35174,-1.02362 2.61592,-2.16281 3.77424,-3.40107 h -30 l -40.52149,-40.55006 -29.85645,-48.91972 -10.25307,8.83886 z"/><path style="color:#000;clip-rule:nonzero;display:inline;overflow:visible;visibility:visible;opacity:1;isolation:auto;mix-blend-mode:normal;color-interpolation:sRGB;color-interpolation-filters:linearRGB;solid-color:#000;solid-opacity:1;fill:#fff;fill-opacity:1;fill-rule:evenodd;stroke:#fff;stroke-width:13.0708;stroke-linecap:round;stroke-linejoin:round;stroke-miterlimit:4;stroke-dasharray:none;stroke-dashoffset:0;stroke-opacity:1;marker:none;paint-order:stroke;color-rendering:auto;image-rendering:auto;shape-rendering:auto;text-rendering:auto;enable-background:accumulate" id="path3370" d="m 419.99999,557.36227 c -0.41699,-9.60089 -8.81759,-17.60878 17.1252,-30.66806 31.8318,-16.02389 125.895,-35.88836 152.1537,-59.98434 19.42709,-17.82687 -70.4154,-37.66945 -55.0191,-59.07323 6.981,-9.70528 59.037,-19.96947 82.1463,-30.27386 21.90569,-9.76799 15.14129,-19.80328 31.4046,-29.97507 15.7092,-9.82558 68.3499,-19.77358 72.18929,-30.02516 -10.41359,10.52188 -68.83379,20.40327 -89.99999,30.00026 -22.3377,10.128 -21.4689,19.93018 -49.4313,29.48367 -30.1245,10.29239 -89.142,20.55268 -102.7077,30.51626 -28.4133,20.86858 46.863,42.59995 16.2024,59.99993 C 452.54309,490.92554 344.7219,510.65712 300,527.3626 c -30.9039,11.54369 -28.4079,17.74799 -30,29.99967"/></g></g></g><text id="text1021" x="562.007" y="412.125" xml:space="preserve" style="font-style:normal;font-weight:400;font-size:32px;line-height:1.25;font-family:sans-serif;fill:#767676;fill-opacity:1;stroke:none"><tspan style="font-style:normal;font-variant:normal;font-weight:700;font-stretch:normal;font-size:32px;font-family:sans-serif;-inkscape-font-specification:'sans-serif Bold';text-align:center;text-anchor:middle" id="tspan1019" x="562.007" y="412.125">NO IMAGE</tspan><tspan style="font-style:normal;font-variant:normal;font-weight:700;font-stretch:normal;font-size:32px;font-family:sans-serif;-inkscape-font-specification:'sans-serif Bold';text-align:center;text-anchor:middle" id="tspan1023" x="562.007" y="452.125">AVAILABLE</tspan></text></g></svg>