<?xml version="1.0" encoding="UTF-8" standalone="no"?>
<svg
   xmlns:dc="http://purl.org/dc/elements/1.1/"
   xmlns:cc="http://creativecommons.org/ns#"
   xmlns:rdf="http://www.w3.org/1999/02/22-rdf-syntax-ns#"
   xmlns:svg="http://www.w3.org/2000/svg"
   xmlns="http://www.w3.org/2000/svg"
   xmlns:sodipodi="http://sodipodi.sourceforge.net/DTD/sodipodi-0.dtd"
   xmlns:inkscape="http://www.inkscape.org/namespaces/inkscape"
   width="24"
   height="24"
   fill-rule="evenodd"
   clip-rule="evenodd"
   version="1.1"
   id="svg827"
   sodipodi:docname="editor.svg"
   inkscape:version="0.92.4 (5da689c313, 2019-01-14)">
  <metadata
     id="metadata833">
    <rdf:RDF>
      <cc:Work
         rdf:about="">
        <dc:format>image/svg+xml</dc:format>
        <dc:type
           rdf:resource="http://purl.org/dc/dcmitype/StillImage" />
      </cc:Work>
    </rdf:RDF>
  </metadata>
  <defs
     id="defs831" />
  <sodipodi:namedview
     pagecolor="#ffffff"
     bordercolor="#666666"
     borderopacity="1"
     objecttolerance="10"
     gridtolerance="10"
     guidetolerance="10"
     inkscape:pageopacity="0"
     inkscape:pageshadow="2"
     inkscape:window-width="1278"
     inkscape:window-height="1368"
     id="namedview829"
     showgrid="false"
     inkscape:zoom="17.353579"
     inkscape:cx="11.673068"
     inkscape:cy="6.9753212"
     inkscape:window-x="-7"
     inkscape:window-y="0"
     inkscape:window-maximized="0"
     inkscape:current-layer="svg827" />
  <path
     d="M 11.201688,21.57975 H 6.4118125 V 8.0084375 h 4.7898755 z m 10.378062,0 h -8.781438 v -4.789875 h 3.19325 v -3.19325 H 21.57975 Z M 9.6050625,18.3865 8.0084375,19.184812 v 0.798313 l 1.596625,-0.798313 z m 6.3864995,1.596625 V 18.3865 h -1.596625 v 1.596625 z M 19.983125,18.3865 h -2.394938 v 1.596625 h 2.394938 z M 9.6050625,15.991562 8.0084375,16.789875 v 0.798312 l 1.596625,-0.798312 z M 19.983125,15.19325 h -2.394938 v 1.596625 h 2.394938 z M 9.6050625,13.596625 8.0084375,14.394937 v 0.798313 l 1.596625,-0.798313 z m 0,-2.394937 L 8.0084375,12 v 0.798312 L 9.6050625,12 Z M 11.201688,4.016875 h 7.983124 L 21.57975,6.4118125 V 7.210125 H 19.184812 V 9.6050625 H 21.57975 V 12 H 15.991562 V 9.6050625 H 18.3865 V 7.210125 H 5.6135 V 9.6050625 H 2.42025 V 4.016875 H 6.4118125 V 2.42025 H 11.201688 Z M 9.6050625,8.80675 8.0084375,9.6050625 v 0.7983125 l 1.596625,-0.7983125 z"
     id="path825"
     inkscape:connector-curvature="0"
     style="fill:#ffffff;stroke-width:0.79831249" />
</svg>
