<?xml version="1.0" encoding="UTF-8" standalone="no"?>
<!-- Created with Inkscape (http://www.inkscape.org/) -->

<svg
   width="32"
   height="32"
   viewBox="0 0 8.4666665 8.4666665"
   version="1.1"
   id="svg5"
   xml:space="preserve"
   inkscape:version="1.2.1 (9c6d41e410, 2022-07-14)"
   sodipodi:docname="helmet.svg"
   xmlns:inkscape="http://www.inkscape.org/namespaces/inkscape"
   xmlns:sodipodi="http://sodipodi.sourceforge.net/DTD/sodipodi-0.dtd"
   xmlns="http://www.w3.org/2000/svg"
   xmlns:svg="http://www.w3.org/2000/svg"><sodipodi:namedview
     id="namedview7"
     pagecolor="#505050"
     bordercolor="#eeeeee"
     borderopacity="1"
     inkscape:showpageshadow="0"
     inkscape:pageopacity="0"
     inkscape:pagecheckerboard="0"
     inkscape:deskcolor="#505050"
     inkscape:document-units="mm"
     showgrid="false"
     inkscape:zoom="10.35098"
     inkscape:cx="24.200607"
     inkscape:cy="44.488541"
     inkscape:window-width="1278"
     inkscape:window-height="1360"
     inkscape:window-x="0"
     inkscape:window-y="0"
     inkscape:window-maximized="0"
     inkscape:current-layer="layer1" /><defs
     id="defs2"><inkscape:path-effect
       effect="bspline"
       id="path-effect510"
       is_visible="true"
       lpeversion="1"
       weight="33.333333"
       steps="2"
       helper_size="0"
       apply_no_weight="true"
       apply_with_weight="true"
       only_selected="false" /><inkscape:path-effect
       effect="bspline"
       id="path-effect364"
       is_visible="true"
       lpeversion="1"
       weight="33.333333"
       steps="2"
       helper_size="0"
       apply_no_weight="true"
       apply_with_weight="true"
       only_selected="false" /><inkscape:path-effect
       effect="bspline"
       id="path-effect360"
       is_visible="true"
       lpeversion="1"
       weight="33.333333"
       steps="2"
       helper_size="0"
       apply_no_weight="true"
       apply_with_weight="true"
       only_selected="false" /><inkscape:path-effect
       effect="bspline"
       id="path-effect364-5"
       is_visible="true"
       lpeversion="1"
       weight="33.333333"
       steps="2"
       helper_size="0"
       apply_no_weight="true"
       apply_with_weight="true"
       only_selected="false" /><inkscape:path-effect
       effect="bspline"
       id="path-effect510-2"
       is_visible="true"
       lpeversion="1"
       weight="33.333333"
       steps="2"
       helper_size="0"
       apply_no_weight="true"
       apply_with_weight="true"
       only_selected="false" /><inkscape:path-effect
       effect="bspline"
       id="path-effect510-3"
       is_visible="true"
       lpeversion="1"
       weight="33.333333"
       steps="2"
       helper_size="0"
       apply_no_weight="true"
       apply_with_weight="true"
       only_selected="false" /></defs><g
     inkscape:label="Layer 1"
     inkscape:groupmode="layer"
     id="layer1"><path
       id="path358"
       style="opacity:1;fill:#e3e3e3;stroke-width:4.99999"
       d="m 4.0347104,0.47590316 c 0.5404961,-0.004509 1.0659773,0.078196 1.5373739,0.35139974 0.6285287,0.3642717 1.1606504,1.0674928 1.5270385,1.6298747 0.044501,0.068305 0.086765,0.1344162 0.1266073,0.1989543 -0.0044,0.00128 -0.0068,0.00177 -0.011369,0.0031 -0.1831859,0.053232 -0.5070271,0.1427722 -0.9585978,0.2087727 -0.4515708,0.066 -1.0308123,0.1082918 -1.4376384,0.1167888 -0.406826,0.0085 -0.6409344,-0.017145 -0.8092529,0 -0.1683186,0.017145 -0.2705703,0.0772 -0.3343465,0.173116 -0.063776,0.095917 -0.089312,0.2275352 0.010852,0.4532023 0.100165,0.2256672 0.3257905,0.5455863 0.5281332,0.7947836 0.2023427,0.2491971 0.3810685,0.4281292 0.6387207,0.5601725 0.2576521,0.1320433 0.5942789,0.2172158 1.1885579,0.298173 0.594279,0.080957 1.4465732,0.1572776 1.8748209,0.1808675 0.1482158,0.00816 0.2445523,0.00992 0.3085083,0.00723 0.052669,0.3401235 0.03962,0.540483 -0.064079,0.8454264 C 8.0492048,6.6236985 7.8361618,7.0711656 7.710455,7.3225137 7.5847482,7.5738618 7.5462888,7.629351 6.5280983,7.4992471 5.5099077,7.3691432 3.5122841,7.0538613 2.4110369,6.8600096 1.3097897,6.6661579 1.1050999,6.5938162 0.87728036,6.2083698 0.64946086,5.8229234 0.39796556,5.124048 0.30418876,4.5681599 0.21041186,4.0122717 0.21679926,3.6183486 0.22962276,3.3073055 0.24244626,2.9962625 0.26185576,2.7681379 0.42149426,2.3868977 0.58113266,2.0056574 0.93870806,1.4519347 1.4839617,1.0939533 2.0292154,0.73597191 2.7620305,0.57407875 3.4905576,0.50587549 3.6726893,0.48882467 3.8545451,0.47740619 4.0347104,0.47590316 Z"
       sodipodi:nodetypes="sssccscsssssscccssssssssss" /><path
       id="path362"
       style="opacity:1;fill:#e3e3e3;stroke-width:4.41638"
       d="m 7.3594984,2.7536206 c 0.01543,4.569e-4 0.031158,0.00327 0.050167,0.00885 0.038018,0.011167 0.087401,0.03358 0.081645,0.074759 -0.00576,0.041179 -0.066454,0.1005482 -0.2695266,0.165749 C 7.0187116,3.0681796 6.673623,3.139425 6.3586104,3.1879092 6.0435977,3.2363932 5.7589563,3.2626272 5.5957716,3.300048 5.4325869,3.337469 5.3906689,3.385911 5.3528043,3.5351459 c -0.037865,0.1492352 -0.071927,0.3988793 -0.047216,0.6133204 0.024711,0.2144408 0.1079764,0.3937188 0.1687001,0.514953 0.060724,0.1212342 0.09896,0.1846108 0.3796979,0.249853 0.2807381,0.065242 0.8045923,0.1324723 1.2049998,0.171651 0.4004077,0.039182 0.6773075,0.050212 0.8253021,0.052135 0.1479946,0.00193 0.167061,-0.00561 0.1805041,0.00934 0.013443,0.014956 0.020764,0.05235 0.022625,0.084104 0.00186,0.031756 -0.00162,0.058038 -0.3831408,0.03738 C 7.322751,5.2472314 6.5634405,5.1799229 6.0339985,5.1090266 5.5045565,5.0381303 5.2046166,4.9634962 4.9750741,4.8478613 4.7455317,4.7322264 4.5862851,4.575728 4.4060191,4.3575001 4.225753,4.1392723 4.0245662,3.8591705 3.9353313,3.6615512 3.8460961,3.463932 3.8686754,3.3486358 3.9254946,3.264639 3.9823136,3.180642 4.0735944,3.1281674 4.2235476,3.1131533 c 0.1499534,-0.015014 0.3585919,0.00744 0.7210326,0 0.3624407,-0.00744 0.8789312,-0.044995 1.2812346,-0.1027939 0.4023036,-0.057798 0.690629,-0.1358551 0.8538285,-0.1824713 0.1631996,-0.046617 0.2013377,-0.06183 0.2336224,-0.069349 0.016142,-0.00376 0.030803,-0.00538 0.046233,-0.00492 z M 4.6706272,3.3418574 A 0.29244444,0.29244444 0 0 0 4.3779843,3.6340084 0.29244444,0.29244444 0 0 0 4.6706272,3.9266512 0.29244444,0.29244444 0 0 0 4.9632701,3.6340084 0.29244444,0.29244444 0 0 0 4.6706272,3.3418574 Z" /><path
       style="opacity:1;fill:#e3e3e3;stroke-width:4.99999"
       d="M 7.5009128,3.0365141 8.0069985,5.0066334 H 7.320168 l -0.4518623,-1.7713 z"
       id="path636" /><path
       style="opacity:1;fill:#e3e3e3;stroke-width:4.99999"
       d="m 6.6785235,3.2805198 -0.1355587,0.00904 0.3524525,1.699002 0.1717077,0.00904 z"
       id="path638" /></g></svg>
