<?xml version="1.0" encoding="UTF-8" standalone="no"?>
<svg
   clip-rule="evenodd"
   fill-rule="evenodd"
   stroke-linejoin="round"
   stroke-miterlimit="2"
   viewBox="0 0 24 24"
   version="1.1"
   id="svg4"
   sodipodi:docname="random.svg"
   inkscape:version="1.2.1 (9c6d41e410, 2022-07-14)"
   xmlns:inkscape="http://www.inkscape.org/namespaces/inkscape"
   xmlns:sodipodi="http://sodipodi.sourceforge.net/DTD/sodipodi-0.dtd"
   xmlns="http://www.w3.org/2000/svg"
   xmlns:svg="http://www.w3.org/2000/svg">
  <defs
     id="defs8" />
  <sodipodi:namedview
     id="namedview6"
     pagecolor="#ffffff"
     bordercolor="#000000"
     borderopacity="0.25"
     inkscape:showpageshadow="2"
     inkscape:pageopacity="0.0"
     inkscape:pagecheckerboard="0"
     inkscape:deskcolor="#d1d1d1"
     showgrid="false"
     inkscape:zoom="42.791667"
     inkscape:cx="8.2609542"
     inkscape:cy="11.988315"
     inkscape:window-width="2560"
     inkscape:window-height="1369"
     inkscape:window-x="-8"
     inkscape:window-y="-8"
     inkscape:window-maximized="1"
     inkscape:current-layer="svg4" />
  <path
     d="m21 7.702-8.5 4.62v9.678c1.567-.865 6.379-3.517 7.977-4.399.323-.177.523-.519.523-.891zm-9.5 4.619-8.5-4.722v9.006c0 .37.197.708.514.887 1.59.898 6.416 3.623 7.986 4.508zm-8.079-5.629 8.579 4.763 8.672-4.713s-6.631-3.738-8.186-4.614c-.151-.085-.319-.128-.486-.128-.168 0-.335.043-.486.128-1.555.876-8.093 4.564-8.093 4.564z"
     fill-rule="nonzero"
     id="path2"
     style="fill:#ffffff;fill-opacity:1" />
  <circle
     style="fill:#000000;fill-opacity:1;stroke-width:0.662607"
     id="path2358"
     cx="15.285538"
     cy="13.60297"
     r="0.75" />
  <circle
     style="fill:#000000;fill-opacity:1;stroke-width:0.662607"
     id="path2358-3"
     cx="18.975658"
     cy="11.918208"
     r="0.75" />
  <circle
     style="fill:#000000;fill-opacity:1;stroke-width:0.662607"
     id="path2358-4"
     cx="18.952288"
     cy="16.334957"
     r="0.75" />
  <circle
     style="fill:#000000;fill-opacity:1;stroke-width:0.662607"
     id="path2358-9"
     cx="15.330088"
     cy="18.064264"
     r="0.75" />
  <circle
     style="fill:#000000;fill-opacity:1;stroke-width:0.662607"
     id="path2358-8"
     cx="-8.9726162"
     cy="13.404334"
     r="0.75"
     transform="scale(-1,1)" />
  <circle
     style="fill:#000000;fill-opacity:1;stroke-width:0.662607"
     id="path2358-8-3"
     cx="-12.035053"
     cy="9.0438175"
     r="0.75"
     transform="scale(-1,1)" />
  <circle
     style="fill:#000000;fill-opacity:1;stroke-width:0.662607"
     id="path2358-8-0"
     cx="-12.058423"
     cy="6.4031157"
     r="0.75"
     transform="scale(-1,1)" />
  <circle
     style="fill:#000000;fill-opacity:1;stroke-width:0.662607"
     id="path2358-8-09"
     cx="-12.081791"
     cy="4.0895815"
     r="0.75"
     transform="scale(-1,1)" />
  <circle
     style="fill:#000000;fill-opacity:1;stroke-width:0.662607"
     id="path2358-8-4"
     cx="-6.9639726"
     cy="14.769231"
     r="0.75"
     transform="scale(-1,1)" />
  <circle
     style="fill:#000000;fill-opacity:1;stroke-width:0.662607"
     id="path2358-3-5"
     cx="-5.282495"
     cy="11.719572"
     r="0.75"
     transform="scale(-1,1)" />
  <circle
     style="fill:#000000;fill-opacity:1;stroke-width:0.662607"
     id="path2358-4-6"
     cx="-5.3058658"
     cy="16.136322"
     r="0.75"
     transform="scale(-1,1)" />
  <circle
     style="fill:#000000;fill-opacity:1;stroke-width:0.662607"
     id="path2358-9-8"
     cx="-8.9280663"
     cy="17.865629"
     r="0.75"
     transform="scale(-1,1)" />
</svg>
