<?xml version="1.0" encoding="UTF-8"?>
<svg width="24" height="24" version="1.1" viewBox="0 0 24 24" xmlns="http://www.w3.org/2000/svg">
 <path d="m12 5.1237c4.3328 0 7.8578 3.525 7.8578 7.8578 0 4.3328-3.525 7.8578-7.8578 7.8578-4.3328 0-7.8578-3.525-7.8578-7.8578 0-4.3328 3.525-7.8578 7.8578-7.8578zm0-1.5716c-5.2074 0-9.4294 4.222-9.4294 9.4294 0 5.2074 4.222 9.4294 9.4294 9.4294 5.2074 0 9.4294-4.222 9.4294-9.4294 0-5.2074-4.222-9.4294-9.4294-9.4294zm0.98223 13.358c0 0.54219-0.43925 0.98223-0.98223 0.98223-0.5414 0-0.98223-0.44004-0.98223-0.98223s0.44082-0.98223 0.98223-0.98223c0.54298 0 0.98223 0.44004 0.98223 0.98223zm1.0946-7.8563c-0.47776-0.48404-1.1905-0.75042-2.0045-0.75042-1.713 0-2.821 1.218-2.821 3.1038h1.5802c0-1.1677 0.65142-1.5818 1.2085-1.5818 0.49819 0 1.027 0.33082 1.0718 0.96337 0.04872 0.66556-0.30646 1.0034-0.75592 1.4309-1.1095 1.0553-1.13 1.5661-1.1252 2.7251h1.5755c-0.01022-0.52176 0.02357-0.9453 0.73471-1.7114 0.53198-0.57362 1.1936-1.2871 1.207-2.3746 0.0086-0.72606-0.22316-1.3508-0.67106-1.8049z" fill="#fff" stroke-width=".78578"/>
</svg>
