<svg xmlns="http://www.w3.org/2000/svg" xmlns:svg="http://www.w3.org/2000/svg" id="svg5" width="1000" height="200" version="1.1" viewBox="0 0 264.583 52.917" xml:space="preserve"><g id="layer1"><g id="text382" aria-label="PolyTrack" style="font-size:59.2131px;font-family:Impact;-inkscape-font-specification:Impact;fill:#28346a;stroke:#212b58;stroke-width:1.32292"><g id="g5117"><g id="g5128" transform="matrix(1,0,-0.19146517,1,7.8303099,0)"><rect style="font-size:59.2131px;font-family:Impact;-inkscape-font-specification:Impact;fill:#112052;fill-opacity:1;stroke:none;stroke-width:.37098;stroke-dasharray:none;stroke-opacity:1" id="rect19982-1" width="72.351" height=".952" x="143.269" y="3.273" transform="matrix(1,0,0.18804934,0.98215958,0,0)"/><rect style="font-size:59.2131px;font-family:Impact;-inkscape-font-specification:Impact;fill:#112052;fill-opacity:1;stroke:none;stroke-width:.372483;stroke-dasharray:none;stroke-opacity:1" id="rect19982-1-3" width="72.939" height=".952" x="142.615" y="7.249" transform="matrix(1,0,0.18804934,0.98215958,0,0)"/><g id="g872" transform="matrix(0.07480357,0,0.01424868,0.07441914,212.37131,-1.9847472)" style="fill:#b3c1ff;fill-opacity:1"><rect id="rect827" width="24.072" height="12.568" x="24.19" y="122.351" style="opacity:1;fill:#b3c1ff;fill-opacity:1;stroke:none;stroke-width:10;stroke-linecap:square;stroke-linejoin:bevel;stroke-miterlimit:4;stroke-dasharray:none;stroke-opacity:1;paint-order:stroke fill markers"/><rect id="rect827-6" width="24.072" height="12.568" x="128.671" y="118.765" style="opacity:1;fill:#b3c1ff;fill-opacity:1;stroke:none;stroke-width:10;stroke-linecap:square;stroke-linejoin:bevel;stroke-miterlimit:4;stroke-dasharray:none;stroke-opacity:1;paint-order:stroke fill markers"/><path id="path844" d="m 20.938897,104.1713 h -2.296848 v 2.40751 h 2.3052 v 6.76526 h 5.220108 v 7.36547 h 6.468523 v -7.27604 h 2.303293 v 8.97693 h 2.385976 v -8.98874 h 10.370722 l 11.221167,11.62277 49.514882,2.83481 4.74832,-14.62295 26.46809,-4.04657 v 9.68852 h 2.23838 v -10.02261 l 2.05135,-0.30861 v 5.23261 h 6.45116 v -7.43801 l 1.52845,-0.55124 2.3e-4,-6.841554 -1.52845,-0.55124 v -7.438007 h -6.45116 v 5.232607 l -2.05135,-0.30861 V 85.880999 h -2.23838 v 9.688517 l -26.46809,-4.04657 -4.74832,-14.622944 -49.514867,2.834807 -11.22117,11.622767 H 37.325392 v -8.988737 h -2.385976 v 8.976927 H 32.636123 V 84.069729 H 26.1676 v 7.365467 h -5.220108 v 6.76526 h -2.3052 v 2.407514 h 2.296848 z" style="fill:#b3c1ff;fill-opacity:1;stroke:none;stroke-width:.264583px;stroke-linecap:butt;stroke-linejoin:miter;stroke-opacity:1"/><rect id="rect827-9" width="24.072" height="12.568" x="24.155" y="-82.428" transform="scale(1,-1)" style="opacity:1;fill:#b3c1ff;fill-opacity:1;stroke:none;stroke-width:10;stroke-linecap:square;stroke-linejoin:bevel;stroke-miterlimit:4;stroke-dasharray:none;stroke-opacity:1;paint-order:stroke fill markers"/><rect id="rect827-6-8" width="24.072" height="12.568" x="128.636" y="-86.015" transform="scale(1,-1)" style="opacity:1;fill:#b3c1ff;fill-opacity:1;stroke:none;stroke-width:10;stroke-linecap:square;stroke-linejoin:bevel;stroke-miterlimit:4;stroke-dasharray:none;stroke-opacity:1;paint-order:stroke fill markers"/></g><path id="path4993" d="m 231.16884,2.0294248 0.76921,36.6957412 h 6.10871 l -0.21614,-10.323001 h 3.73655 l 9.34969,10.323001 h 5.69358 l -0.0725,-3.463475 -9.41323,-10.522359 8.97783,-10.256161 -0.0725,-3.462894 h -5.45652 l -9.15458,10.32242 H 237.6824 L 237.27808,2.0294248 Z m -161.021639,0.06626 0.767922,36.6294832 h 6.108701 L 76.255902,2.0956888 Z M 1.6239476,3.8939758 2.3539792,38.725172 H 8.462681 L 8.169459,24.739338 H 33.079421 L 32.642612,3.8939758 Z m 111.5596424,0 0.14963,7.1263062 h 12.21741 l 0.5809,27.70489 h 6.34577 l -0.58039,-27.70489 h 12.2174 l -0.14912,-7.1263062 z m 30.93072,7.1263062 0.5804,27.70489 h 6.34628 L 150.60417,17.87981 h 6.76089 l 0.1441,6.859528 h 6.34575 l -0.28717,-13.719056 z m 56.10064,-0.266778 0.58451,27.904829 h 24.90995 l -0.14951,-7.125726 h -18.56369 l -0.28728,-13.719636 h 18.56369 l -0.14823,-7.059467 z m -31.07355,0.199939 0.13675,6.526489 h 18.56368 l 0.0948,4.528846 h -18.56367 l 0.34877,16.649555 h 24.90943 l -0.58034,-27.70489 z M 7.882283,11.02028 h 18.563684 l 0.143587,6.859528 H 8.025872 Z m 31.196202,0 0.580913,27.704889 H 64.568843 L 63.988446,11.020277 Z m 43.354597,0 0.580914,27.704889 h 16.013476 l -6.318516,6.992627 0.09345,4.462005 h 4.804356 L 107.68638,38.725169 107.10598,11.02028 h -6.10922 l 0.43681,20.84536 H 88.979109 L 88.542301,11.02028 Z M 45.568351,17.879808 H 57.785755 L 58.078977,31.86564 H 45.861574 Z M 175.83786,27.66983 h 12.2174 l 0.10032,4.795045 h -12.21744 z" style="font-family:'FORCED SQUARE';-inkscape-font-specification:'FORCED SQUARE';fill:#b3c1ff;fill-opacity:1;stroke:#112052;stroke-width:1.40413;stroke-dasharray:none;stroke-opacity:1"/></g></g></g></g></svg>