<svg xmlns="http://www.w3.org/2000/svg" xmlns:svg="http://www.w3.org/2000/svg" id="svg4" fill-rule="evenodd" stroke-linejoin="round" stroke-miterlimit="2" clip-rule="evenodd" version="1.1" viewBox="0 0 24 24"><path id="path2" fill-rule="nonzero" d="m21 7.702-8.5 4.62v9.678c1.567-.865 6.379-3.517 7.977-4.399.323-.177.523-.519.523-.891zm-9.5 4.619-8.5-4.722v9.006c0 .37.197.708.514.887 1.59.898 6.416 3.623 7.986 4.508zm-8.079-5.629 8.579 4.763 8.672-4.713s-6.631-3.738-8.186-4.614c-.151-.085-.319-.128-.486-.128-.168 0-.335.043-.486.128-1.555.876-8.093 4.564-8.093 4.564z" style="fill:#fff;fill-opacity:1"/><circle style="fill:#000;fill-opacity:1;stroke-width:.662607" id="path2358" cx="15.286" cy="13.603" r=".75"/><circle style="fill:#000;fill-opacity:1;stroke-width:.662607" id="path2358-3" cx="18.976" cy="11.918" r=".75"/><circle style="fill:#000;fill-opacity:1;stroke-width:.662607" id="path2358-4" cx="18.952" cy="16.335" r=".75"/><circle style="fill:#000;fill-opacity:1;stroke-width:.662607" id="path2358-9" cx="15.33" cy="18.064" r=".75"/><circle style="fill:#000;fill-opacity:1;stroke-width:.662607" id="path2358-8" cx="-8.973" cy="13.404" r=".75" transform="scale(-1,1)"/><circle style="fill:#000;fill-opacity:1;stroke-width:.662607" id="path2358-8-3" cx="-12.035" cy="9.044" r=".75" transform="scale(-1,1)"/><circle style="fill:#000;fill-opacity:1;stroke-width:.662607" id="path2358-8-0" cx="-12.058" cy="6.403" r=".75" transform="scale(-1,1)"/><circle style="fill:#000;fill-opacity:1;stroke-width:.662607" id="path2358-8-09" cx="-12.082" cy="4.09" r=".75" transform="scale(-1,1)"/><circle style="fill:#000;fill-opacity:1;stroke-width:.662607" id="path2358-8-4" cx="-6.964" cy="14.769" r=".75" transform="scale(-1,1)"/><circle style="fill:#000;fill-opacity:1;stroke-width:.662607" id="path2358-3-5" cx="-5.282" cy="11.72" r=".75" transform="scale(-1,1)"/><circle style="fill:#000;fill-opacity:1;stroke-width:.662607" id="path2358-4-6" cx="-5.306" cy="16.136" r=".75" transform="scale(-1,1)"/><circle style="fill:#000;fill-opacity:1;stroke-width:.662607" id="path2358-9-8" cx="-8.928" cy="17.866" r=".75" transform="scale(-1,1)"/></svg>