<svg xmlns="http://www.w3.org/2000/svg" width="886" height="1270" fill="none" viewBox="0 0 886 1270"><g opacity=".8"><path fill="url(#paint0_linear)" d="M442.518 641.019L510.501 170.019H374.535L442.518 641.019Z"/><path fill="url(#paint1_linear)" d="M442.518 628.019L510.501 1099.02H374.535L442.518 628.019Z"/><path fill="url(#paint2_linear)" d="M449.019 634.519L-21.9814 566.536V702.502L449.019 634.519Z"/><path fill="url(#paint3_linear)" d="M436.019 634.519L907.019 566.536V702.502L436.019 634.519Z"/><path fill="url(#paint4_linear)" d="M445.768 640.148L269.143 198.259L151.393 266.242L445.768 640.148Z"/><path fill="url(#paint5_linear)" d="M439.268 628.89L733.643 1002.8L615.893 1070.78L439.268 628.89Z"/><path fill="url(#paint6_linear)" d="M448.148 631.269L6.25844 807.894L74.2414 925.644L448.148 631.269Z"/><path fill="url(#paint7_linear)" d="M436.89 637.769L810.796 343.394L878.779 461.144L436.89 637.769Z"/><path fill="url(#paint8_linear)" d="M448.148 637.769L74.2413 343.394L6.25829 461.144L448.148 637.769Z"/><path fill="url(#paint9_linear)" d="M436.889 631.269L878.779 807.894L810.796 925.644L436.889 631.269Z"/><path fill="url(#paint10_linear)" d="M445.769 628.89L151.394 1002.8L269.144 1070.78L445.769 628.89Z"/><path fill="url(#paint11_linear)" d="M439.269 640.148L615.894 198.258L733.644 266.241L439.269 640.148Z"/></g><defs><linearGradient id="paint0_linear" x1="442.519" x2="442.519" y1="491.754" y2="204.931" gradientUnits="userSpaceOnUse"><stop stop-color="#fff"/><stop offset="1" stop-color="#fff" stop-opacity="0"/></linearGradient><linearGradient id="paint1_linear" x1="442.519" x2="442.519" y1="777.284" y2="1064.11" gradientUnits="userSpaceOnUse"><stop stop-color="#fff"/><stop offset="1" stop-color="#fff" stop-opacity="0"/></linearGradient><linearGradient id="paint2_linear" x1="299.754" x2="12.931" y1="634.518" y2="634.518" gradientUnits="userSpaceOnUse"><stop stop-color="#fff"/><stop offset="1" stop-color="#fff" stop-opacity="0"/></linearGradient><linearGradient id="paint3_linear" x1="585.284" x2="872.106" y1="634.518" y2="634.518" gradientUnits="userSpaceOnUse"><stop stop-color="#fff"/><stop offset="1" stop-color="#fff" stop-opacity="0"/></linearGradient><linearGradient id="paint4_linear" x1="371.136" x2="227.725" y1="510.881" y2="262.485" gradientUnits="userSpaceOnUse"><stop stop-color="#fff"/><stop offset="1" stop-color="#fff" stop-opacity="0"/></linearGradient><linearGradient id="paint5_linear" x1="513.901" x2="657.313" y1="758.157" y2="1006.55" gradientUnits="userSpaceOnUse"><stop stop-color="#fff"/><stop offset="1" stop-color="#fff" stop-opacity="0"/></linearGradient><linearGradient id="paint6_linear" x1="318.88" x2="70.484" y1="705.901" y2="849.312" gradientUnits="userSpaceOnUse"><stop stop-color="#fff"/><stop offset="1" stop-color="#fff" stop-opacity="0"/></linearGradient><linearGradient id="paint7_linear" x1="566.157" x2="814.553" y1="563.136" y2="419.725" gradientUnits="userSpaceOnUse"><stop stop-color="#fff"/><stop offset="1" stop-color="#fff" stop-opacity="0"/></linearGradient><linearGradient id="paint8_linear" x1="318.881" x2="70.485" y1="563.136" y2="419.725" gradientUnits="userSpaceOnUse"><stop stop-color="#fff"/><stop offset="1" stop-color="#fff" stop-opacity="0"/></linearGradient><linearGradient id="paint9_linear" x1="566.157" x2="814.553" y1="705.901" y2="849.313" gradientUnits="userSpaceOnUse"><stop stop-color="#fff"/><stop offset="1" stop-color="#fff" stop-opacity="0"/></linearGradient><linearGradient id="paint10_linear" x1="371.136" x2="227.724" y1="758.157" y2="1006.55" gradientUnits="userSpaceOnUse"><stop stop-color="#fff"/><stop offset="1" stop-color="#fff" stop-opacity="0"/></linearGradient><linearGradient id="paint11_linear" x1="513.901" x2="657.312" y1="510.88" y2="262.485" gradientUnits="userSpaceOnUse"><stop stop-color="#fff"/><stop offset="1" stop-color="#fff" stop-opacity="0"/></linearGradient></defs></svg>