<svg xmlns="http://www.w3.org/2000/svg" xmlns:xlink="http://www.w3.org/1999/xlink" width="118.998" height="347.598" version="1.1" viewBox="1.426 2.059 118.998 347.598"><g id="ID0.38378272438421845"><path id="ID0.4909252771176398" fill="#000" stroke="none" stroke-width="1.158" d="M 90.1216 34.3291 L 83.5207 37.9938 L 87.1368 44.5073 L 93.7378 40.8426 L 90.1216 34.3291 Z"/><path id="ID0.4909252771176398" fill="#000" stroke="none" stroke-width="1.158" d="M 34.2784 33.3791 L 40.8793 37.0438 L 37.2632 43.5573 L 30.6622 39.8926 L 34.2784 33.3791 Z"/><path id="ID0.5329540926031768" fill="#9F9F9F" stroke="#000" stroke-linecap="round" stroke-width=".694" d="M 77.6827 261.4101 C 75.8639 261.3179 73.8266 260.9805 72.3801 261.8439 C 71.5502 262.3487 71.9333 263.6008 71.9536 264.4867 C 71.9748 265.2977 71.9577 266.414 72.8807 266.8725 C 74.1567 267.6694 75.9121 267.7931 77.6827 267.7561 C 79.5746 267.7314 81.6 267.6157 83.2264 266.6637 C 83.8679 266.2999 83.5268 265.3816 83.486 264.6875 C 83.4026 263.794 83.5724 262.5784 82.7258 262.0688 C 81.2734 261.1932 79.3414 261.3937 77.6827 261.4101 Z"/><path id="ID0.5329540926031768" fill="#9F9F9F" stroke="#000" stroke-linecap="round" stroke-width=".694" d="M 45.7673 261.2101 C 47.5861 261.1179 49.6234 260.7805 51.0699 261.6439 C 51.8998 262.1487 51.5167 263.4008 51.4964 264.2867 C 51.4752 265.0977 51.4923 266.214 50.5693 266.6725 C 49.2933 267.4694 47.5379 267.5931 45.7673 267.5561 C 43.8754 267.5314 41.85 267.4157 40.2236 266.4637 C 39.5821 266.0999 39.9232 265.1816 39.964 264.4875 C 40.0474 263.594 39.8776 262.3784 40.7242 261.8688 C 42.1766 260.9932 44.1086 261.1937 45.7673 261.2101 Z"/><path id="ID0.009427077136933804" fill="#E5E5E5" stroke="#000" stroke-linecap="round" stroke-width=".983" d="M 77.7692 262.4424 C 79.6951 262.3379 82.8661 263.5009 83.8218 261.3705 C 87.6451 252.8486 89.976 243.4163 90.7404 234.1328 C 91.4836 225.1421 93.3872 215.3089 88.7572 207.5064 C 86.7766 204.1763 80.7074 209.3756 76.7917 210.4903 C 72.8901 211.9269 67.2325 211.763 65.3287 215.154 C 61.9338 221.1994 62.2826 228.6611 63.0731 235.4863 C 64.1273 244.5826 66.6946 253.6778 71.0259 261.9905 C 72.108 264.0687 75.3963 262.546 77.7692 262.4424 Z"/><path id="ID0.009427077136933804" fill="#E5E5E5" stroke="#000" stroke-linecap="round" stroke-width=".988" d="M 44.6916 262.7076 C 42.7514 262.6028 39.5569 263.7685 38.594 261.6332 C 34.7421 253.0919 32.3937 243.6382 31.6235 234.3337 C 30.8746 225.3225 28.9567 215.467 33.621 207.6469 C 35.6164 204.3093 41.7308 209.5204 45.6756 210.6377 C 49.6063 212.0776 55.306 211.9134 57.224 215.3121 C 60.6443 221.3712 60.293 228.8499 59.4968 235.6905 C 58.4348 244.8075 55.8486 253.9232 51.4852 262.2547 C 50.395 264.3377 47.0823 262.8115 44.6916 262.7076 Z"/><path id="ID0.6162337306886911" fill="#570AFF" stroke="#000" stroke-linecap="round" stroke-width="1.607" d="M 63.196 187.7263 C 69.0639 187.5402 75.7251 182.7167 80.6776 185.6934 C 87.0601 189.5293 90.9671 197.661 90.9852 204.8497 C 91.1279 208.6903 84.9771 210.2713 81.0487 211.4957 C 74.865 213.3699 68.2533 213.6741 61.6705 213.7632 C 55.2748 213.8445 48.7563 213.3723 42.5396 211.6912 C 38.5139 210.6114 31.95 209.394 31.6548 205.2406 C 31.2268 198.5953 34.7108 190.3738 40.8904 186.9444 C 47.305 183.3884 55.6393 187.9663 63.196 187.7263 Z"/><path id="ID0.009427077136933804" fill="#E5E5E5" stroke="#000" stroke-linecap="round" stroke-width="1.015" d="M 45.696 266.1267 C 47.7022 266.148 51.0601 264.8648 52.0334 266.9538 C 55.9274 275.3092 57.6607 284.3648 58.6024 293.3284 C 59.2691 299.9051 58.8273 306.7693 56.7483 313.1414 C 56.082 315.0217 53.2245 315.9475 50.9941 316.1968 C 48.638 316.454 45.2547 316.3747 44.1404 314.5138 C 40.5829 308.57 38.8976 301.7337 38.0981 295.0849 C 37.0702 285.7147 36.3536 276.0082 38.7075 266.8885 C 39.2961 264.6086 43.2253 266.1262 45.696 266.1267 Z"/><path id="ID0.009427077136933804" fill="#E5E5E5" stroke="#000" stroke-linecap="round" stroke-width="1.015" d="M 77.4459 265.7784 C 75.4399 265.8063 72.0778 264.534 71.1113 266.6261 C 67.2445 274.9942 65.5407 284.0554 64.6282 293.0221 C 63.983 299.6009 64.4471 306.4637 66.5469 312.8289 C 67.2193 314.707 70.0798 315.6235 72.311 315.8655 C 74.668 316.1151 78.0509 316.0248 79.1591 314.1602 C 82.6973 308.2048 84.3603 301.3631 85.1382 294.7117 C 86.1356 285.3382 86.8205 275.6294 84.4369 266.5175 C 83.8409 264.2395 79.9166 265.7699 77.4459 265.7784 Z"/><path id="ID0.6336899171583354" fill="#E5E5E5" stroke="#000" stroke-linecap="round" stroke-width="1.03" d="M 49.2128 316.2068 C 53.3902 316.0966 58.2216 318.3295 60.1816 322.0259 C 61.8006 324.919 58.6779 328.5578 57.6583 331.7588 C 55.9599 337.0845 54.9578 342.744 52.0966 347.6197 C 51.5415 348.8721 49.7299 348.7444 48.1829 348.7526 C 46.2971 348.7598 43.8098 349.3428 42.6213 347.6197 C 39.8879 343.6287 38.5881 338.5378 38.5016 333.6642 C 38.4346 329.7731 40.0908 325.9047 42.0487 322.5605 C 43.7058 319.7302 46.0262 316.2944 49.2128 316.2068 Z"/><path id="ID0.6336899171583354" fill="#570AFF" stroke="#000" stroke-linecap="round" stroke-width=".852" d="M 47.4097 316.1442 C 51.0678 315.7056 56.0512 316.6834 57.971 320.0195 C 59.6165 322.8745 56.3041 326.4117 55.2029 329.5162 C 53.7711 333.5516 52.5404 337.4942 50.4759 340.9292 C 49.9171 342.0585 48.6677 342.5926 47.6652 342.6326 C 45.3383 342.7084 42.1103 343.5737 40.7237 341.7383 C 38.4454 338.7164 38.3917 334.2841 38.5518 330.5808 C 38.6898 327.2872 39.866 324.164 41.4851 321.3985 C 42.8556 319.058 44.6527 316.2422 47.4097 316.1442 Z"/><path id="ID0.8246311885304749" fill="#FF9400" stroke="#000" stroke-width=".408" d="M 46.2374 322.533 C 46.8387 322.533 47.3835 322.774 47.7779 323.1631 C 48.1724 323.5525 48.4167 324.0899 48.4167 324.6832 C 48.4167 325.2764 48.1724 325.8138 47.7779 326.2032 C 47.3835 326.5923 46.8387 326.8333 46.2374 326.8333 C 45.6361 326.8333 45.0912 326.5923 44.6968 326.2032 C 44.3023 325.8138 44.0581 325.2764 44.0581 324.6832 C 44.0581 324.0899 44.3023 323.5525 44.6968 323.1631 C 45.0912 322.774 45.6361 322.533 46.2374 322.533 Z"/><path id="ID0.6336899171583354" fill="#E5E5E5" stroke="#000" stroke-linecap="round" stroke-width="1.025" d="M 73.76 315.7848 C 69.6023 315.6751 64.7936 317.8975 62.8429 321.5765 C 61.2314 324.456 64.3395 328.0776 65.3543 331.2636 C 67.0447 336.5643 68.0421 342.1972 70.8898 347.05 C 71.4423 348.2965 73.2455 348.1694 74.7851 348.1776 C 76.6621 348.1847 79.1377 348.7649 80.3206 347.05 C 83.0412 343.0777 84.3348 338.0107 84.4209 333.16 C 84.4876 329.2873 82.8392 325.437 80.8906 322.1086 C 79.2412 319.2916 76.9317 315.8719 73.76 315.7848 Z"/><path id="ID0.6336899171583354" fill="#570AFF" stroke="#000" stroke-linecap="round" stroke-width=".848" d="M 75.5949 315.6856 C 71.9539 315.249 66.994 316.2222 65.0833 319.5426 C 63.4455 322.3842 66.7422 325.9047 67.8383 328.9946 C 69.2633 333.0111 70.4883 336.9351 72.5431 340.3539 C 73.0992 341.478 74.3428 342.0095 75.3406 342.0494 C 77.6565 342.1248 80.8693 342.9861 82.2494 341.1593 C 84.517 338.1516 84.5704 333.7401 84.4111 330.0543 C 84.2737 326.7762 83.103 323.6676 81.4915 320.9151 C 80.1276 318.5856 78.3389 315.783 75.5949 315.6856 Z"/><path id="ID0.8246311885304749" fill="#FF9400" stroke="#000" stroke-width=".406" d="M 76.8414 322.1278 C 76.2429 322.1278 75.7007 322.3677 75.3081 322.755 C 74.9155 323.1425 74.6723 323.6774 74.6723 324.2679 C 74.6723 324.8583 74.9155 325.3933 75.3081 325.7808 C 75.7007 326.1681 76.2429 326.408 76.8414 326.408 C 77.4399 326.408 77.9821 326.1681 78.3747 325.7808 C 78.7673 325.3933 79.0105 324.8583 79.0105 324.2679 C 79.0105 323.6774 78.7673 323.1425 78.3747 322.755 C 77.9821 322.3677 77.4399 322.1278 76.8414 322.1278 Z"/><g id="ID0.8600924322381616"><path id="ID0.6762936701998115" fill="none" stroke="#E5E5E5" stroke-linecap="round" stroke-width=".977" d="M 106.8124 178.1304 L 113.1939 182.3494"/><path id="ID0.35972120333462954" fill="#9F15C0" stroke="#000" stroke-linecap="round" stroke-width="1.122" d="M 111.5924 179.0057 L 76.7909 166.6068 L 75.6682 175.6145 L 100.4252 193.63 L 111.5924 179.0057 Z"/><path id="ID0.03989383624866605" fill="#79119C" stroke="#000" stroke-linecap="round" stroke-width="1.088" d="M 99.8779 187.4633 L 96.945 190.5792 L 99.8955 192.7444 L 99.8779 187.4633 Z"/><path id="ID0.6762936701998115" fill="none" stroke="#E5E5E5" stroke-linecap="round" stroke-width=".977" d="M 95.8672 186.7556 L 102.4093 190.721"/><path id="ID0.6762936701998115" fill="none" stroke="#E5E5E5" stroke-linecap="round" stroke-width="1.138" d="M 77.262 188.9736 L 78.665 194.8175"/><path id="ID0.6762936701998115" fill="none" stroke="#E5E5E5" stroke-linecap="round" stroke-width="1.138" d="M 45.788 189.2236 L 44.385 195.0675"/><path id="ID0.6762936701998115" fill="none" stroke="#E5E5E5" stroke-linecap="round" stroke-width=".977" d="M 13.1876 180.6804 L 6.8061 184.8994"/><path id="ID0.35972120333462954" fill="#9F15C0" stroke="#000" stroke-linecap="round" stroke-width="1.125" d="M 10.4131 178.9258 L 46.4324 167.0568 L 47.6192 176.0645 L 22.6964 194.08 L 10.4131 178.9258 Z"/><path id="ID0.03989383624866605" fill="#79119C" stroke="#000" stroke-linecap="round" stroke-width="1.145" d="M 23.1175 187.4083 L 26.0933 190.7846 L 22.9172 192.9592 L 23.1175 187.4083 Z"/><path id="ID0.6762936701998115" fill="none" stroke="#E5E5E5" stroke-linecap="round" stroke-width=".977" d="M 27.8876 186.8804 L 21.5061 191.0994"/><path id="ID0.35972120333462954" fill="#9F15C0" stroke="#000" stroke-linecap="round" stroke-width="1.125" d="M 99.9084 186.5432 L 72.9196 165.5281 L 68.8359 173.6442 L 88.7697 200.8427 L 99.9084 186.5432 Z"/><path id="ID0.35972120333462954" fill="#9F15C0" stroke="#000" stroke-linecap="round" stroke-width="1.125" d="M 23.6416 186.2432 L 50.6304 165.2281 L 59.643 170.898 L 34.7803 200.5427 L 23.6416 186.2432 Z"/><path id="ID0.32881462248042226" fill="#620D7E" stroke="#000" stroke-linecap="round" stroke-width="1.06" d="M 53.8903 169.992 L 54.0492 170.7868 L 45.6773 189.1731 L 35.133 198.9756 L 53.8903 169.992 Z"/><path id="ID0.35972120333462954" fill="#9F15C0" stroke="#000" stroke-linecap="round" stroke-width="1.125" d="M 45.8081 188.7959 L 54.8342 168.7071 L 62.2819 169.7039 L 62.2801 204.1554 L 45.8081 188.7959 Z"/><path id="ID0.35972120333462954" fill="#9F15C0" stroke="#000" stroke-linecap="round" stroke-width="1.125" d="M 78.9419 189.3459 L 69.9158 169.2571 L 62.4681 170.2539 L 62.42 204.1269 L 78.9419 189.3459 Z"/><path id="ID0.32881462248042226" fill="#620D7E" stroke="#000" stroke-linecap="round" stroke-width="1.06" d="M 70.6456 169.7591 L 69.8508 169.9181 L 78.2227 189.5231 L 88.0252 200.4913 L 70.6456 169.7591 Z"/><path id="ID0.8246311885304749" fill="#FF9400" stroke="#000" stroke-width=".629" d="M 116.2603 180.1241 C 117.1873 180.1241 118.0274 180.4957 118.6356 181.0957 C 119.2437 181.6959 119.6204 182.5246 119.6204 183.4392 C 119.6204 184.3539 119.2437 185.1826 118.6356 185.7828 C 118.0274 186.3828 117.1873 186.7544 116.2603 186.7544 C 115.3332 186.7544 114.4932 186.3828 113.885 185.7828 C 113.2768 185.1826 112.9002 184.3539 112.9002 183.4392 C 112.9002 182.5246 113.2768 181.6959 113.885 181.0957 C 114.4932 180.4957 115.3332 180.1241 116.2603 180.1241 Z"/><path id="ID0.8246311885304749" fill="#FF9400" stroke="#000" stroke-width=".629" d="M 104.3103 187.6741 C 105.2373 187.6741 106.0774 188.0457 106.6856 188.6457 C 107.2937 189.2459 107.6704 190.0746 107.6704 190.9892 C 107.6704 191.9039 107.2937 192.7326 106.6856 193.3328 C 106.0774 193.9328 105.2373 194.3044 104.3103 194.3044 C 103.3832 194.3044 102.5432 193.9328 101.935 193.3328 C 101.3268 192.7326 100.9502 191.9039 100.9502 190.9892 C 100.9502 190.0746 101.3268 189.2459 101.935 188.6457 C 102.5432 188.0457 103.3832 187.6741 104.3103 187.6741 Z"/><path id="ID0.8246311885304749" fill="#FF9400" stroke="#000" stroke-width=".613" d="M 79.2603 193.2243 C 80.1873 193.2243 81.0274 193.5777 81.6356 194.1483 C 82.2437 194.7191 82.6204 195.5071 82.6204 196.3769 C 82.6204 197.2467 82.2437 198.0347 81.6356 198.6056 C 81.0274 199.1761 80.1873 199.5295 79.2603 199.5295 C 78.3332 199.5295 77.4932 199.1761 76.885 198.6056 C 76.2768 198.0347 75.9002 197.2467 75.9002 196.3769 C 75.9002 195.5071 76.2768 194.7191 76.885 194.1483 C 77.4932 193.5777 78.3332 193.2243 79.2603 193.2243 Z"/><path id="ID0.8246311885304749" fill="#FF9400" stroke="#000" stroke-width=".629" d="M 5.5897 182.0741 C 4.6627 182.0741 3.8226 182.4457 3.2144 183.0457 C 2.6063 183.6459 2.2296 184.4746 2.2296 185.3892 C 2.2296 186.3039 2.6063 187.1326 3.2144 187.7328 C 3.8226 188.3328 4.6627 188.7044 5.5897 188.7044 C 6.5168 188.7044 7.3568 188.3328 7.965 187.7328 C 8.5732 187.1326 8.9498 186.3039 8.9498 185.3892 C 8.9498 184.4746 8.5732 183.6459 7.965 183.0457 C 7.3568 182.4457 6.5168 182.0741 5.5897 182.0741 Z"/><path id="ID0.8246311885304749" fill="#FF9400" stroke="#000" stroke-width=".613" d="M 18.9897 188.7243 C 18.0627 188.7243 17.2226 189.0777 16.6144 189.6483 C 16.0063 190.2191 15.6296 191.0071 15.6296 191.8769 C 15.6296 192.7467 16.0063 193.5347 16.6144 194.1056 C 17.2226 194.6761 18.0627 195.0295 18.9897 195.0295 C 19.9168 195.0295 20.7568 194.6761 21.365 194.1056 C 21.9732 193.5347 22.3498 192.7467 22.3498 191.8769 C 22.3498 191.0071 21.9732 190.2191 21.365 189.6483 C 20.7568 189.0777 19.9168 188.7243 18.9897 188.7243 Z"/><path id="ID0.8246311885304749" fill="#FF9400" stroke="#000" stroke-width=".613" d="M 43.7897 193.0243 C 42.8627 193.0243 42.0226 193.3777 41.4144 193.9483 C 40.8063 194.5191 40.4296 195.3071 40.4296 196.1769 C 40.4296 197.0467 40.8063 197.8347 41.4144 198.4056 C 42.0226 198.9761 42.8627 199.3295 43.7897 199.3295 C 44.7168 199.3295 45.5568 198.9761 46.165 198.4056 C 46.7732 197.8347 47.1498 197.0467 47.1498 196.1769 C 47.1498 195.3071 46.7732 194.5191 46.165 193.9483 C 45.5568 193.3777 44.7168 193.0243 43.7897 193.0243 Z"/></g><path id="ID0.34213676815852523" fill="#E5E5E5" stroke="#000" stroke-width=".698" d="M 93.5908 131.417 C 95.2174 131.417 96.6915 132.0824 97.7587 133.1573 C 98.8259 134.2318 99.4866 135.7163 99.4866 137.3543 C 99.4866 138.9922 98.8259 140.4767 97.7587 141.5513 C 96.6915 142.6262 95.2174 143.2916 93.5908 143.2916 C 91.9643 143.2916 90.4902 142.6262 89.423 141.5513 C 88.3558 140.4767 87.6951 138.9922 87.6951 137.3543 C 87.6951 135.7163 88.3558 134.2318 89.423 133.1573 C 90.4902 132.0824 91.9643 131.417 93.5908 131.417 Z"/><path id="ID0.34213676815852523" fill="#E5E5E5" stroke="#000" stroke-width=".698" d="M 28.4408 130.567 C 30.0674 130.567 31.5415 131.2324 32.6087 132.3073 C 33.6759 133.3818 34.3366 134.8663 34.3366 136.5043 C 34.3366 138.1422 33.6759 139.6267 32.6087 140.7013 C 31.5415 141.7762 30.0674 142.4416 28.4408 142.4416 C 26.8143 142.4416 25.3402 141.7762 24.273 140.7013 C 23.2058 139.6267 22.5451 138.1422 22.5451 136.5043 C 22.5451 134.8663 23.2058 133.3818 24.273 132.3073 C 25.3402 131.2324 26.8143 130.567 28.4408 130.567 Z"/><path id="ID0.43741271179169416" fill="#E5E5E5" stroke="#000" stroke-linecap="round" stroke-width="1.204" d="M 42.673 142.0047 C 52.9974 135.1639 69.5831 135.7921 79.9821 142.6064 C 86.1567 146.6526 81.247 158.417 77.2441 164.6308 C 74.1877 169.3582 67.173 171.0317 61.4479 171.0696 C 55.8503 171.1178 48.8007 169.6507 45.6818 164.8715 C 41.4881 158.4393 36.1987 146.2868 42.673 142.0047 Z"/><path id="ID0.38258988596498966" fill="#E5E5E5" stroke="#000" stroke-width=".549" d="M 113.1284 73.6489 C 111.8286 73.754 110.711 74.5931 109.9553 75.8638 C 109.1996 77.1345 108.806 78.8368 108.9541 80.6683 C 109.1023 82.4999 109.7644 84.1168 110.7145 85.2495 C 111.6647 86.3822 112.9025 87.0308 114.2024 86.9256 C 115.5022 86.8205 116.6198 85.9814 117.3755 84.7107 C 118.1312 83.44 118.5249 81.7377 118.3767 79.9061 C 118.2286 78.0746 117.5664 76.4577 116.6163 75.325 C 115.6662 74.1923 114.4283 73.5437 113.1284 73.6489 Z"/><path id="ID0.009427077136933804" fill="#E5E5E5" stroke="#000" stroke-linecap="round" stroke-width=".773" d="M 88.6098 40.2734 C 89.9558 39.3778 92.0129 38.1101 93.5205 39.5835 C 99.4283 44.8595 104.0553 51.5556 108.4972 58.383 C 112.1288 63.9672 116.0715 69.7835 117.4396 76.2661 C 117.8537 78.2289 114.7123 79.0856 113.0262 80.0596 C 111.5063 80.9954 109.4785 83.0037 107.9629 81.9107 C 102.4499 77.9355 97.8283 72.4678 94.3275 66.5942 C 90.1886 59.6646 87.3257 52.0632 85.6991 44.3975 C 85.2192 42.3679 87.2217 41.1985 88.6098 40.2734 Z"/><path id="ID0.38258988596498966" fill="#E5E5E5" stroke="#000" stroke-width=".549" d="M 9.8216 74.0489 C 11.1214 74.154 12.239 74.9931 12.9947 76.2638 C 13.7504 77.5345 14.144 79.2368 13.9959 81.0683 C 13.8477 82.8999 13.1856 84.5168 12.2355 85.6495 C 11.2853 86.7822 10.0475 87.4308 8.7476 87.3256 C 7.4478 87.2205 6.3302 86.3814 5.5745 85.1107 C 4.8188 83.84 4.4251 82.1377 4.5733 80.3061 C 4.7214 78.4746 5.3836 76.8577 6.3337 75.725 C 7.2838 74.5923 8.5217 73.9437 9.8216 74.0489 Z"/><path id="ID0.009427077136933804" fill="#E5E5E5" stroke="#000" stroke-linecap="round" stroke-width=".771" d="M 34.3657 40.4337 C 32.958 39.6559 30.8756 39.1305 29.448 40.3842 C 23.6849 45.6646 18.8783 51.9148 14.531 58.4616 C 10.8604 63.9901 6.9467 69.8126 5.6288 76.2821 C 5.2288 78.2463 8.4528 79.0357 10.1252 80.0632 C 11.6491 80.9401 13.615 82.9941 15.1047 81.928 C 20.6119 77.986 25.2504 72.547 28.6991 66.6751 C 32.7313 59.8112 35.5224 52.2351 37.2696 44.5918 C 37.5985 42.622 35.8238 41.2408 34.3657 40.4337 Z"/><path id="ID0.009427077136933804" fill="#E5E5E5" stroke="#000" stroke-linecap="round" stroke-width=".812" d="M 113.0591 83.0614 C 111.416 82.5452 109.1165 81.171 107.8379 83.0584 C 102.7238 90.6083 99.3444 99.39 96.1032 108.0342 C 93.547 114.8645 90.9794 122.0465 90.6749 129.225 C 90.5907 131.2284 93.4839 131.6639 95.1639 132.1944 C 97.0616 132.7926 99.7004 134.2745 101.1751 132.6079 C 105.9277 127.2358 109.347 119.975 111.7591 112.8519 C 114.7889 104.202 116.4748 94.8484 116.8657 85.7667 C 116.9635 83.4961 114.5406 83.4828 113.0591 83.0614 Z"/><path id="ID0.009427077136933804" fill="#E5E5E5" stroke="#000" stroke-linecap="round" stroke-width=".812" d="M 9.369 83.0647 C 10.9144 82.6209 12.9456 81.0114 14.2121 82.9084 C 19.2763 90.4967 22.7056 99.24 25.9468 107.8842 C 28.503 114.7145 31.0706 121.8965 31.3751 129.075 C 31.4593 131.0784 28.5661 131.5139 26.8861 132.0444 C 24.9884 132.6426 22.3496 134.1245 20.8749 132.4579 C 16.1223 127.0858 12.703 119.825 10.2909 112.7019 C 7.2611 104.052 5.446 94.6922 5.1843 85.6167 C 5.1181 83.3481 7.8312 83.5461 9.369 83.0647 Z"/><path id="ID0.6090890164487064" fill="#D4D4D4" stroke="#000" stroke-width=".802" d="M 52.6739 105.8463 L 68.7208 105.8463 L 68.7208 127.1085 L 52.6739 127.1085 L 52.6739 105.8463 Z"/><g id="ID0.10958085674792528"><path id="ID0.5880004446953535" fill="#FF9400" stroke="#000" stroke-width=".162" d="M 86.991 79.7171 C 87.701 79.7171 88.3445 80.0197 88.8104 80.5084 C 89.2763 80.9971 89.5647 81.6719 89.5647 82.4168 C 89.5647 83.1616 89.2763 83.8365 88.8104 84.3252 C 88.3445 84.8139 87.701 85.1164 86.991 85.1164 C 86.2809 85.1164 85.6375 84.8139 85.1716 84.3252 C 84.7056 83.8365 84.4172 83.1616 84.4172 82.4168 C 84.4172 81.6719 84.7056 80.9971 85.1716 80.5084 C 85.6375 80.0197 86.2809 79.7171 86.991 79.7171 Z"/><path id="ID0.5880004446953535" fill="#FF9400" stroke="#000" stroke-width=".162" d="M 34.491 79.2171 C 35.201 79.2171 35.8445 79.5197 36.3104 80.0084 C 36.7763 80.4971 37.0647 81.1719 37.0647 81.9168 C 37.0647 82.6616 36.7763 83.3365 36.3104 83.8252 C 35.8445 84.3139 35.201 84.6164 34.491 84.6164 C 33.7809 84.6164 33.1375 84.3139 32.6716 83.8252 C 32.2056 83.3365 31.9172 82.6616 31.9172 81.9168 C 31.9172 81.1719 32.2056 80.4971 32.6716 80.0084 C 33.1375 79.5197 33.7809 79.2171 34.491 79.2171 Z"/><path id="ID0.6138056269846857" fill="#E5E5E5" stroke="#000" stroke-linecap="round" stroke-width=".486" d="M 84.612 67.2893 C 83.7779 67.4448 84.052 69.1834 83.8629 70.254 C 83.6363 71.5806 83.9788 72.9642 83.8629 74.3116 C 83.8926 75.4897 83.3013 76.6929 83.6054 77.8164 C 83.9626 79.1322 84.5092 81.0009 85.8643 81.3338 C 87.1492 81.6487 88.6483 80.448 89.5383 79.2721 C 90.5526 77.9305 90.9791 76.2399 90.9791 74.299 C 90.9791 72.3582 90.6036 70.5934 89.5383 69.3259 C 88.435 68.0184 86.4364 67.0117 84.612 67.2893 Z"/><path id="ID0.6138056269846857" fill="#E5E5E5" stroke="#000" stroke-linecap="round" stroke-width=".486" d="M 37.788 67.0893 C 38.6221 67.2448 38.348 68.9834 38.5371 70.054 C 38.7637 71.3806 38.4212 72.7642 38.5371 74.1116 C 38.5074 75.2897 39.0987 76.4929 38.7946 77.6164 C 38.4374 78.9322 37.8908 80.8009 36.5357 81.1338 C 35.2508 81.4487 33.7517 80.248 32.8617 79.0721 C 31.8474 77.7305 31.4209 76.0399 31.4209 74.099 C 31.4209 72.1582 31.7964 70.3934 32.8617 69.1259 C 33.965 67.8184 35.9636 66.8117 37.788 67.0893 Z"/><path id="ID0.4151952927932143" fill="#570AFF" stroke="#000" stroke-linecap="round" stroke-width=".668" d="M 61.3997 34.74 C 64.3256 34.6772 67.6406 36.1844 69.4906 38.7272 C 70.9089 40.6769 71.7886 45.1052 69.6195 46.1491 C 64.6209 48.5504 58.2101 48.6049 53.1638 46.3045 C 51.0118 45.3217 52.0836 40.9772 53.4378 39.0378 C 55.1997 36.5154 58.39 34.7921 61.3997 34.74 Z"/><path id="ID0.43821146339178085" fill="#E5E5E5" stroke="#000" stroke-linecap="round" stroke-width=".793" d="M 61.3278 43.5525 C 68.716 43.6336 78.0712 45.5692 82.8056 52.7842 C 87.4595 59.8822 84.2259 70.8774 85.0121 79.8724 C 85.2815 82.5574 86.3257 85.3655 85.5637 87.8689 C 84.1612 93.2011 82.3024 99.0015 78.5705 102.1931 C 73.6119 106.4791 67.1483 108.8508 60.9897 108.976 C 55.1823 109.0094 49.1222 106.6729 44.2629 102.6482 C 40.4243 99.4683 38.1207 93.9241 36.558 88.4973 C 35.6067 85.9194 36.8181 82.9067 37.1096 79.8724 C 37.9758 70.8466 35.1042 59.8358 39.8499 52.7842 C 44.6235 45.6719 53.7562 43.478 61.3278 43.5525 Z"/><path id="ID0.8451296999119222" fill="#FF0892" stroke="#000" stroke-width=".242" d="M 40.516 84.1092 C 42.4367 86.5224 43.6012 89.8664 43.735 93.1112 C 43.7781 94.1747 42.0417 94.4412 41.0908 94.379 C 39.8861 94.299 38.612 93.7824 37.7588 92.8184 C 36.9055 91.8543 36.3774 90.523 36.3774 89.054 C 36.3774 87.5849 36.9264 86.2814 37.7588 85.2895 C 38.4734 84.4395 39.8988 83.2008 40.516 84.1092 Z"/><path id="ID0.11054511833935976" fill="#000" stroke="none" stroke-linecap="round" stroke-width=".675" d="M 61.1926 90.6564 C 64.6311 90.6204 67.9812 91.908 71.3652 91.8932 C 72.871 91.9702 75.9001 89.5052 75.6905 90.8331 C 75.1702 94.1348 72.5564 98.51 69.603 100.9036 C 67.3 102.888 63.9314 103.0096 60.9523 103.0237 C 58.0079 103.0386 54.6797 102.8287 52.3017 100.9036 C 49.3765 98.5298 46.6512 93.6797 46.2142 90.6564 C 46.0008 89.313 49.3682 91.978 51.0201 91.8932 C 54.4298 91.9744 57.7452 90.6932 61.1926 90.6564 Z"/><g id="ID0.35200342861935496"><path id="ID0.9584619114175439" fill="#FF0892" stroke="#000" stroke-linecap="round" stroke-width=".505" d="M 55.8435 90.5238 C 57.3199 90.2893 58.9541 88.9323 60.4601 89.4541 C 61.1941 89.7083 61.3284 91.7583 60.6174 92.2465 C 59.342 93.2584 57.5998 92.8274 55.9895 92.8299 C 54.1564 92.8288 52.2463 92.6116 50.5082 92.2356 C 49.7343 92.0686 48.3866 91.3385 48.3513 91.0517 C 48.3866 90.8569 49.7936 90.9647 50.5082 90.9097 C 52.1172 90.788 53.9856 90.7764 55.8435 90.5238 Z"/><path id="ID0.9584619114175439" fill="#FF0892" stroke="#000" stroke-linecap="round" stroke-width=".504" d="M 66.2203 90.5238 C 64.7529 90.2893 63.1232 88.9076 61.6319 89.4541 C 60.8902 89.7264 60.7319 91.7897 61.4087 92.2465 C 62.722 93.3017 64.4915 92.8383 66.0752 92.8299 C 67.8976 92.8155 69.7954 92.6116 71.5229 92.2356 C 72.2921 92.0686 73.6316 91.3385 73.6666 91.0517 C 73.6316 90.8569 72.2332 90.9647 71.5229 90.9097 C 69.9238 90.788 68.0668 90.7764 66.2203 90.5238 Z"/></g><path id="ID0.8451296999119222" fill="#FF0892" stroke="#000" stroke-width=".242" d="M 81.534 84.2092 C 79.6133 86.6224 78.4488 89.9664 78.315 93.2112 C 78.2719 94.2747 80.0083 94.5412 80.9592 94.479 C 82.1639 94.399 83.438 93.8824 84.2912 92.9184 C 85.1445 91.9543 85.6726 90.623 85.6726 89.154 C 85.6726 87.6849 85.1236 86.3814 84.2912 85.3895 C 83.5766 84.5395 82.1512 83.3008 81.534 84.2092 Z"/><path id="ID0.07176896231248975" fill="#E5E5E5" stroke="none" stroke-width=".588" d="M 59.5047 80.0149 C 59.8319 80.0149 60.1289 80.3511 60.3433 80.8947 C 60.5582 81.4378 60.6911 82.1883 60.6911 83.0164 C 60.6911 83.8445 60.5582 84.595 60.3433 85.1381 C 60.1289 85.6817 59.8319 86.0179 59.5047 86.0179 C 59.1776 86.0179 58.8806 85.6817 58.6662 85.1381 C 58.4513 84.595 58.3184 83.8445 58.3184 83.0164 C 58.3184 82.1883 58.4513 81.4378 58.6662 80.8947 C 58.8806 80.3511 59.1776 80.0149 59.5047 80.0149 Z"/><path id="ID0.39027308067306876" fill="#7F00FF" stroke="#000" stroke-linecap="round" stroke-width=".704" d="M 45.4801 66.9248 C 48.6304 65.4159 52.7086 65.1917 55.9498 66.6296 C 58.0899 67.5844 59.1891 70.7053 59.2948 73.233 C 59.4701 74.7337 57.906 75.9186 56.6523 76.6269 C 54.9858 77.5485 52.9481 77.8015 51.2 77.8443 C 49.2954 77.8878 47.285 77.7226 45.4801 76.9221 C 43.9608 76.1828 41.6053 75.2937 41.5665 73.3806 C 41.5176 70.7968 43.3246 67.957 45.4801 66.9248 Z"/><path id="ID0.10200350824743509" fill="#000" stroke="none" stroke-linecap="round" stroke-width=".516" d="M 42.1589 74.3825 C 41.524 74.2535 41.6774 73.8117 42.0234 73.8028 C 43.409 73.7679 44.7153 74.1639 46.0658 74.2584 C 47.5224 74.3696 49.0107 74.3868 50.489 74.4105 C 52.0141 74.4374 53.5554 74.465 55.0881 74.4107 C 56.3558 74.3633 57.4616 73.9843 58.8822 74.1068 C 59.2363 74.1385 59.2509 74.6444 58.5828 74.7447 C 55.9095 75.1458 53.1831 75.4304 50.4738 75.3646 C 47.6695 75.3086 44.8634 74.8894 42.1589 74.3825 Z"/><path id="ID0.7804951220750809" fill="none" stroke="#000" stroke-linecap="round" stroke-width=".588" d="M 42.981 72.7806 L 45.4931 74.4737"/><path id="ID0.7804951220750809" fill="none" stroke="#000" stroke-linecap="round" stroke-width=".588" d="M 45.9392 70.8951 L 48.1723 74.5277"/><path id="ID0.7804951220750809" fill="none" stroke="#000" stroke-linecap="round" stroke-width=".588" d="M 57.9387 73.2424 L 55.8452 74.6277"/><path id="ID0.7804951220750809" fill="none" stroke="#000" stroke-linecap="round" stroke-width=".588" d="M 55.0096 70.7412 L 53.0277 74.5277"/><path id="ID0.5638309656642377" fill="none" stroke="#000" stroke-linecap="round" stroke-width=".588" d="M 50.5236 69.7022 L 50.5236 74.3198"/><path id="ID0.39027308067306876" fill="#7F00FF" stroke="#000" stroke-linecap="round" stroke-width=".704" d="M 76.8199 66.9248 C 73.6696 65.4159 69.5914 65.1917 66.3502 66.6296 C 64.2101 67.5844 63.1109 70.7053 63.0052 73.233 C 62.8299 74.7337 64.394 75.9186 65.6477 76.6269 C 67.3142 77.5485 69.3519 77.8015 71.1 77.8443 C 73.0046 77.8878 75.015 77.7226 76.8199 76.9221 C 78.3392 76.1828 80.6947 75.2937 80.7335 73.3806 C 80.7824 70.7968 78.9754 67.957 76.8199 66.9248 Z"/><path id="ID0.10200350824743509" fill="#000" stroke="none" stroke-linecap="round" stroke-width=".516" d="M 80.1411 74.3825 C 80.776 74.2535 80.6226 73.8117 80.2766 73.8028 C 78.891 73.7679 77.5847 74.1639 76.2342 74.2584 C 74.7776 74.3696 73.2893 74.3868 71.811 74.4105 C 70.2859 74.4374 68.7446 74.465 67.2119 74.4107 C 65.9442 74.3633 64.8384 73.9843 63.4178 74.1068 C 63.0637 74.1385 63.0491 74.6444 63.7172 74.7447 C 66.3905 75.1458 69.1169 75.4304 71.8262 75.3646 C 74.6305 75.3086 77.4366 74.8894 80.1411 74.3825 Z"/><path id="ID0.7804951220750809" fill="none" stroke="#000" stroke-linecap="round" stroke-width=".588" d="M 79.769 72.6806 L 77.2569 74.3737"/><path id="ID0.7804951220750809" fill="none" stroke="#000" stroke-linecap="round" stroke-width=".588" d="M 76.4945 70.8951 L 74.1777 74.5277"/><path id="ID0.7804951220750809" fill="none" stroke="#000" stroke-linecap="round" stroke-width=".588" d="M 64.4113 73.1424 L 66.5048 74.5277"/><path id="ID0.7804951220750809" fill="none" stroke="#000" stroke-linecap="round" stroke-width=".588" d="M 67.3742 70.7412 L 69.2723 74.5277"/><path id="ID0.5638309656642377" fill="none" stroke="#000" stroke-linecap="round" stroke-width=".588" d="M 71.7764 69.7022 L 71.7764 74.3198"/><path id="ID0.2223073118366301" fill="#000" stroke="none" stroke-width=".646" d="M 60.7015 53.9541 L 61.818 53.9541 L 61.818 78.3662 L 60.7015 78.3662 L 60.7015 53.9541 Z"/><path id="ID0.31529118539765477" fill="#4115FF" stroke="#000" stroke-linecap="round" stroke-width=".477" d="M 49.9528 57.5877 C 52.8176 57.0951 55.8159 57.5667 58.5226 58.6758 C 59.2092 58.8728 58.6492 60.5061 58.0407 60.7006 C 56.7908 61.0944 55.6202 60.1985 54.4145 60.1855 C 52.8559 60.0304 51.2987 60.0368 49.7675 60.1974 C 47.1674 60.4746 42 61.6247 41.9952 61.3689 C 41.9912 61.1126 47.1018 58.0781 49.9528 57.5877 Z"/><path id="ID0.31529118539765477" fill="#4115FF" stroke="#000" stroke-linecap="round" stroke-width=".477" d="M 72.3972 57.5877 C 69.5324 57.0951 66.5341 57.5667 63.8274 58.6758 C 63.1408 58.8728 63.7008 60.5061 64.3093 60.7006 C 65.5592 61.0944 66.7298 60.1985 67.9355 60.1855 C 69.4941 60.0304 71.0513 60.0368 72.5825 60.1974 C 75.1826 60.4746 80.35 61.6247 80.3548 61.3689 C 80.3588 61.1126 75.2482 58.0781 72.3972 57.5877 Z"/><path id="ID0.0846987972036004" fill="#570AFF" stroke="#000" stroke-linecap="round" stroke-width=".778" d="M 61.2813 43.4269 C 65.9824 43.4375 70.8425 43.9408 75.2434 45.7685 C 78.1586 46.9805 81.0405 49.0945 82.6164 52.0314 C 83.2021 53.1292 80.7387 53.6927 79.5474 54.1927 C 78.4721 54.7424 77.2327 55.1404 75.9237 55.1306 C 71.0377 55.0947 66.2072 54.032 61.2813 54.0296 C 56.382 54.0271 51.5196 55.2415 46.6018 55.1306 C 45.3706 55.1029 44.2983 54.3827 43.237 53.8664 C 42.3311 53.2499 40.1843 52.7083 40.7597 51.7459 C 42.445 49.008 45.1953 46.956 48.0587 45.7685 C 52.2333 44.0411 56.8213 43.4375 61.2813 43.4269 Z"/><path id="ID0.13872371334582567" fill="#000" stroke="none" stroke-width=".588" d="M 60.9911 43.3815 L 61.4656 43.3815 L 61.8285 54.5562 L 60.7119 54.4023 L 60.9911 43.3815 Z"/><g id="ID0.6591944475658238"><g id="ID0.15084869135171175"><path id="ID0.6635745116509497" fill="#E5E5E5" stroke="#000" stroke-width=".084" d="M 55.7674 49.7397 C 56.026 49.7397 56.2603 49.8482 56.43 50.0234 C 56.5997 50.1987 56.7047 50.4407 56.7047 50.7078 C 56.7047 50.9749 56.5997 51.2169 56.43 51.3922 C 56.2603 51.5674 56.026 51.6759 55.7674 51.6759 C 55.5088 51.6759 55.2744 51.5674 55.1047 51.3922 C 54.9351 51.2169 54.83 50.9749 54.83 50.7078 C 54.83 50.4407 54.9351 50.1987 55.1047 50.0234 C 55.2744 49.8482 55.5088 49.7397 55.7674 49.7397 Z"/><path id="ID0.6635745116509497" fill="#E5E5E5" stroke="#000" stroke-width=".109" d="M 57.8726 47.8093 C 58.2096 47.8093 58.5149 47.9506 58.736 48.179 C 58.9572 48.4074 59.094 48.7227 59.094 49.0708 C 59.094 49.4188 58.9572 49.7341 58.736 49.9626 C 58.5149 50.1909 58.2096 50.3322 57.8726 50.3322 C 57.5357 50.3322 57.2303 50.1909 57.0092 49.9626 C 56.7881 49.7341 56.6513 49.4188 56.6513 49.0708 C 56.6513 48.7227 56.7881 48.4074 57.0092 48.179 C 57.2303 47.9506 57.5357 47.8093 57.8726 47.8093 Z"/></g><g id="ID0.15084869135171175"><path id="ID0.6635745116509497" fill="#E5E5E5" stroke="#000" stroke-width=".084" d="M 66.3826 49.7397 C 66.124 49.7397 65.8897 49.8482 65.72 50.0234 C 65.5503 50.1987 65.4453 50.4407 65.4453 50.7078 C 65.4453 50.9749 65.5503 51.2169 65.72 51.3922 C 65.8897 51.5674 66.124 51.6759 66.3826 51.6759 C 66.6412 51.6759 66.8756 51.5674 67.0453 51.3922 C 67.2149 51.2169 67.32 50.9749 67.32 50.7078 C 67.32 50.4407 67.2149 50.1987 67.0453 50.0234 C 66.8756 49.8482 66.6412 49.7397 66.3826 49.7397 Z"/><path id="ID0.6635745116509497" fill="#E5E5E5" stroke="#000" stroke-width=".109" d="M 64.3274 47.8093 C 63.9904 47.8093 63.6851 47.9506 63.464 48.179 C 63.2428 48.4074 63.106 48.7227 63.106 49.0708 C 63.106 49.4188 63.2428 49.7341 63.464 49.9626 C 63.6851 50.1909 63.9904 50.3322 64.3274 50.3322 C 64.6643 50.3322 64.9697 50.1909 65.1908 49.9626 C 65.4119 49.7341 65.5487 49.4188 65.5487 49.0708 C 65.5487 48.7227 65.4119 48.4074 65.1908 48.179 C 64.9697 47.9506 64.6643 47.8093 64.3274 47.8093 Z"/></g><path id="ID0.6635745116509497" fill="#E5E5E5" stroke="#000" stroke-width=".13" d="M 61.1465 46.7391 C 60.7429 46.7391 60.3772 46.9084 60.1123 47.182 C 59.8475 47.4556 59.6836 47.8333 59.6836 48.2502 C 59.6836 48.667 59.8475 49.0448 60.1123 49.3183 C 60.3772 49.5919 60.7429 49.7612 61.1465 49.7612 C 61.5501 49.7612 61.9159 49.5919 62.1807 49.3183 C 62.4456 49.0448 62.6095 48.667 62.6095 48.2502 C 62.6095 47.8333 62.4456 47.4556 62.1807 47.182 C 61.9159 46.9084 61.5501 46.7391 61.1465 46.7391 Z"/></g><path id="ID0.918193937279284" fill="#000" stroke="none" stroke-width=".588" d="M 61.1202 35.0697 L 61.5389 35.0697 L 61.5389 43.6894 L 61.1202 43.6894 L 61.1202 35.0697 Z"/><g id="ID0.8222979349084198"><path id="ID0.6635745116509497" fill="#E5E5E5" stroke="#000" stroke-width=".123" d="M 61.1624 35.5764 C 60.7812 35.5764 60.4357 35.7363 60.1856 35.9946 C 59.9354 36.253 59.7806 36.6098 59.7806 37.0035 C 59.7806 37.3973 59.9354 37.754 60.1856 38.0125 C 60.4357 38.2708 60.7812 38.4307 61.1624 38.4307 C 61.5436 38.4307 61.8891 38.2708 62.1392 38.0125 C 62.3894 37.754 62.5442 37.3973 62.5442 37.0035 C 62.5442 36.6098 62.3894 36.253 62.1392 35.9946 C 61.8891 35.7363 61.5436 35.5764 61.1624 35.5764 Z"/><g id="ID0.6264404808171093"><path id="ID0.6635745116509497" fill="#E5E5E5" stroke="#000" stroke-width=".079" d="M 68.7413 41.4572 C 68.497 41.4572 68.2757 41.5597 68.1154 41.7252 C 67.9552 41.8908 67.856 42.1194 67.856 42.3716 C 67.856 42.6239 67.9552 42.8525 68.1154 43.0181 C 68.2757 43.1836 68.497 43.286 68.7413 43.286 C 68.9856 43.286 69.2069 43.1836 69.3672 43.0181 C 69.5274 42.8525 69.6266 42.6239 69.6266 42.3716 C 69.6266 42.1194 69.5274 41.8908 69.3672 41.7252 C 69.2069 41.5597 68.9856 41.4572 68.7413 41.4572 Z"/><path id="ID0.6635745116509497" fill="#E5E5E5" stroke="#000" stroke-width=".103" d="M 66.425 37.4064 C 66.1068 37.4064 65.8184 37.5399 65.6095 37.7556 C 65.4007 37.9713 65.2714 38.2692 65.2714 38.5979 C 65.2714 38.9266 65.4007 39.2245 65.6095 39.4402 C 65.8184 39.6559 66.1068 39.7894 66.425 39.7894 C 66.7433 39.7894 67.0317 39.6559 67.2405 39.4402 C 67.4494 39.2245 67.5786 38.9266 67.5786 38.5979 C 67.5786 38.2692 67.4494 37.9713 67.2405 37.7556 C 67.0317 37.5399 66.7433 37.4064 66.425 37.4064 Z"/><path id="ID0.6635745116509497" fill="#E5E5E5" stroke="#000" stroke-width=".086" d="M 68.0314 39.367 C 67.765 39.367 67.5235 39.4788 67.3487 39.6593 C 67.1738 39.8399 67.0656 40.0893 67.0656 40.3645 C 67.0656 40.6397 67.1738 40.8891 67.3487 41.0697 C 67.5235 41.2503 67.765 41.3621 68.0314 41.3621 C 68.2979 41.3621 68.5393 41.2503 68.7142 41.0697 C 68.889 40.8891 68.9972 40.6397 68.9972 40.3645 C 68.9972 40.0893 68.889 39.8399 68.7142 39.6593 C 68.5393 39.4788 68.2979 39.367 68.0314 39.367 Z"/><path id="ID0.6635745116509497" fill="#E5E5E5" stroke="#000" stroke-width=".112" d="M 63.9674 36.2417 C 63.6192 36.2417 63.3036 36.3878 63.0751 36.6238 C 62.8466 36.8598 62.7052 37.1857 62.7052 37.5454 C 62.7052 37.905 62.8466 38.2309 63.0751 38.4669 C 63.3036 38.7029 63.6192 38.849 63.9674 38.849 C 64.3156 38.849 64.6311 38.7029 64.8596 38.4669 C 65.0882 38.2309 65.2296 37.905 65.2296 37.5454 C 65.2296 37.1857 65.0882 36.8598 64.8596 36.6238 C 64.6311 36.3878 64.3156 36.2417 63.9674 36.2417 Z"/></g><g id="ID0.6264404808171093"><path id="ID0.6635745116509497" fill="#E5E5E5" stroke="#000" stroke-width=".079" d="M 53.7087 41.3572 C 53.953 41.3572 54.1743 41.4597 54.3346 41.6252 C 54.4948 41.7908 54.594 42.0194 54.594 42.2716 C 54.594 42.5239 54.4948 42.7525 54.3346 42.9181 C 54.1743 43.0836 53.953 43.186 53.7087 43.186 C 53.4644 43.186 53.2431 43.0836 53.0828 42.9181 C 52.9226 42.7525 52.8234 42.5239 52.8234 42.2716 C 52.8234 42.0194 52.9226 41.7908 53.0828 41.6252 C 53.2431 41.4597 53.4644 41.3572 53.7087 41.3572 Z"/><path id="ID0.6635745116509497" fill="#E5E5E5" stroke="#000" stroke-width=".103" d="M 56.075 37.3564 C 56.3932 37.3564 56.6816 37.4899 56.8905 37.7056 C 57.0993 37.9213 57.2286 38.2192 57.2286 38.5479 C 57.2286 38.8766 57.0993 39.1745 56.8905 39.3902 C 56.6816 39.6059 56.3932 39.7394 56.075 39.7394 C 55.7567 39.7394 55.4683 39.6059 55.2595 39.3902 C 55.0506 39.1745 54.9214 38.8766 54.9214 38.5479 C 54.9214 38.2192 55.0506 37.9213 55.2595 37.7056 C 55.4683 37.4899 55.7567 37.3564 56.075 37.3564 Z"/><path id="ID0.6635745116509497" fill="#E5E5E5" stroke="#000" stroke-width=".086" d="M 54.4186 39.217 C 54.685 39.217 54.9265 39.3288 55.1013 39.5093 C 55.2762 39.6899 55.3844 39.9393 55.3844 40.2145 C 55.3844 40.4897 55.2762 40.7391 55.1013 40.9197 C 54.9265 41.1003 54.685 41.2121 54.4186 41.2121 C 54.1521 41.2121 53.9107 41.1003 53.7358 40.9197 C 53.561 40.7391 53.4528 40.4897 53.4528 40.2145 C 53.4528 39.9393 53.561 39.6899 53.7358 39.5093 C 53.9107 39.3288 54.1521 39.217 54.4186 39.217 Z"/><path id="ID0.6635745116509497" fill="#E5E5E5" stroke="#000" stroke-width=".112" d="M 58.4326 36.0917 C 58.7808 36.0917 59.0964 36.2378 59.3249 36.4738 C 59.5534 36.7098 59.6948 37.0357 59.6948 37.3954 C 59.6948 37.755 59.5534 38.0809 59.3249 38.3169 C 59.0964 38.5529 58.7808 38.699 58.4326 38.699 C 58.0844 38.699 57.7689 38.5529 57.5404 38.3169 C 57.3118 38.0809 57.1704 37.755 57.1704 37.3954 C 57.1704 37.0357 57.3118 36.7098 57.5404 36.4738 C 57.7689 36.2378 58.0844 36.0917 58.4326 36.0917 Z"/></g></g><g id="ID0.7077854895032942"><path id="ID0.7955716918222606" fill="#D4D4D4" stroke="#000" stroke-width=".506" d="M 57.0029 98.6269 L 60.5626 98.6269 L 60.5626 100.9821 L 57.0029 100.9821 L 57.0029 98.6269 Z"/><path id="ID0.7955716918222606" fill="#D4D4D4" stroke="#000" stroke-width=".506" d="M 53.1029 98.6269 L 56.6626 98.6269 L 56.6626 100.9821 L 53.1029 100.9821 L 53.1029 98.6269 Z"/></g><g id="ID0.7077854895032942"><path id="ID0.7955716918222606" fill="#D4D4D4" stroke="#000" stroke-width=".506" d="M 65.0971 98.6269 L 61.5374 98.6269 L 61.5374 100.9821 L 65.0971 100.9821 L 65.0971 98.6269 Z"/><path id="ID0.7955716918222606" fill="#D4D4D4" stroke="#000" stroke-width=".506" d="M 69.0471 98.6269 L 65.4874 98.6269 L 65.4874 100.9821 L 69.0471 100.9821 L 69.0471 98.6269 Z"/></g><path id="ID0.9584619114175439" fill="#FF0892" stroke="#000" stroke-linecap="round" stroke-width=".543" d="M 66.7665 99.8673 C 64.8552 100.2563 62.6974 99.8609 60.9577 100.9391 C 60.3347 101.2057 60.4298 102.9497 61.175 103.0494 C 63.5689 103.3493 66.1633 102.5333 68.3485 101.5872 C 69.7401 100.9854 72.0153 98.779 71.7986 98.4697 C 71.5811 98.1602 68.4628 99.5223 66.7665 99.8673 Z"/><path id="ID0.9584619114175439" fill="#FF0892" stroke="#000" stroke-linecap="round" stroke-width=".543" d="M 54.8684 99.645 C 56.7746 100.0636 58.9371 99.7017 60.6629 100.8068 C 61.2825 101.083 61.1651 102.8254 60.4187 102.9135 C 58.0212 103.1762 55.4375 102.3201 53.2646 101.3402 C 51.8808 100.7168 49.634 98.4754 49.8545 98.1695 C 50.076 97.8634 53.1767 99.2737 54.8684 99.645 Z"/><path id="ID0.2223073118366301" fill="#000" stroke="none" stroke-width=".646" d="M 60.5515 84.3041 L 61.668 84.3041 L 61.668 108.7162 L 60.5515 108.7162 L 60.5515 84.3041 Z"/><path id="ID0.8805460166186094" fill="#E5E5E5" stroke="#000" stroke-linecap="round" stroke-width=".636" d="M 60.7926 77.8994 C 61.5767 78.0192 61.1842 80.8642 61.2153 82.3612 C 61.2367 83.3918 61.4311 84.5569 60.9435 85.4246 C 60.6 86.0206 59.7543 86.1188 59.1169 86.0572 C 58.5759 86.0046 57.8435 85.7456 57.7281 85.1249 C 57.4664 84.0501 57.7179 82.7764 58.1508 81.7452 C 58.7888 80.2302 60.0459 77.7109 60.7926 77.8994 Z"/><path id="ID0.8805460166186094" fill="#E5E5E5" stroke="#000" stroke-linecap="round" stroke-width=".636" d="M 61.5574 77.8994 C 60.7733 78.0192 61.1441 80.8625 61.1347 82.3612 C 61.1281 83.4344 60.9874 84.6591 61.5423 85.5744 C 61.8216 86.1278 62.6419 86.1375 63.2331 86.0572 C 63.7726 85.9833 64.5065 85.7456 64.6219 85.1249 C 64.8836 84.0501 64.6321 82.7764 64.1992 81.7452 C 63.5612 80.2302 62.3041 77.7109 61.5574 77.8994 Z"/></g><path id="ID0.9212223514914513" fill="#E5E5E5" stroke="#000" stroke-linecap="round" stroke-width="1.034" d="M 55.9553 122.6829 C 59.2122 123.7059 62.8667 123.5312 66.0347 122.4503 C 68.047 121.8233 68.2021 118.0004 70.3767 117.9275 C 79.076 117.6355 89.1901 117.1134 96.2731 121.4682 C 99.4934 123.4552 95.686 128.8836 95.6787 132.8916 C 95.8922 136.0979 98.318 139.6061 96.8676 143.1262 C 95.0626 147.3683 91.6764 151.8441 87.2533 153.3607 C 82.7558 154.9016 77.7031 152.9989 73.2971 151.4999 C 70.2516 150.3343 68.2822 147.2003 65.5695 145.6073 C 64.2577 144.8371 62.7556 144.2561 61.2018 144.2633 C 59.8087 144.2561 58.365 144.8753 57.1441 145.6073 C 54.5033 147.1905 52.4517 150.1182 49.4165 151.2931 C 45.8536 152.6955 41.7654 154.1205 37.8898 153.1281 C 33.2067 151.9268 28.476 149.2524 25.8461 145.0128 C 23.9222 141.9254 26.5465 137.7996 26.4664 134.1063 C 26.4209 130.3154 22.0877 124.8446 25.2517 122.6829 C 32.558 117.7052 42.7201 117.668 51.7167 117.9275 C 53.9642 117.668 53.9306 122.0461 55.9553 122.6829 Z"/><path id="ID0.9646833362057805" fill="#570AFF" stroke="#000" stroke-linecap="round" stroke-width=".839" d="M 38.4458 118.5617 C 43.4169 117.8629 51.924 116.5629 53.8049 119.338 C 55.2392 121.6826 45.7581 124.657 45.0762 128.8011 C 44.3481 133.2414 50.6806 137.2486 49.8812 141.4325 C 49.0931 144.9155 45.017 147.7654 41.4672 148.0629 C 38.1919 148.3348 34.2753 146.0654 33.0323 143.237 C 31.4469 138.9868 35.8561 133.985 34.2493 129.9971 C 32.8409 126.5476 24.2638 126.0062 25.2059 123.3876 C 26.3943 120.1345 33.799 119.2146 38.4458 118.5617 Z"/><path id="ID0.9646833362057805" fill="#570AFF" stroke="#000" stroke-linecap="round" stroke-width=".839" d="M 83.6042 117.9617 C 78.6453 117.3368 70.4244 116.2768 68.5808 119.0318 C 67.1091 121.3965 76.32 124.1825 76.9738 128.2011 C 77.6964 132.643 71.3694 136.6486 72.1688 140.8325 C 72.9569 144.3155 77.033 147.1654 80.5828 147.4629 C 83.8581 147.7348 87.7747 145.4654 89.0177 142.637 C 90.6031 138.3868 86.1939 133.385 87.8007 129.3971 C 89.2091 125.9476 97.7862 125.4062 96.8441 122.7876 C 95.6557 119.5345 88.2586 118.5483 83.6042 117.9617 Z"/><path id="ID0.1195337581448257" fill="#000" stroke="none" stroke-width=".602" d="M 61.0135 144.7879 L 61.9161 144.7879 L 61.9161 170.9645 L 61.0135 170.9645 L 61.0135 144.7879 Z"/><path id="ID0.9811247428879142" fill="#570AFF" stroke="#000" stroke-linecap="round" stroke-width=".636" d="M 42.1215 304.2444 C 46.824 303.6359 51.5274 303.0093 56.2458 302.6238 C 57.4253 302.5276 58.7469 302.0204 58.7561 302.9893 C 58.6979 306.7633 58.1136 310.9227 56.1346 313.9995 C 55.0164 315.703 52.4133 315.9166 50.3832 316.1285 C 48.4887 316.3261 45.967 316.6433 44.6318 315.2388 C 42.151 312.6262 40.8784 308.6358 40.0084 304.9911 C 39.7942 304.0861 40.9448 304.4033 42.1215 304.2444 Z"/><path id="ID0.9811247428879142" fill="#570AFF" stroke="#000" stroke-linecap="round" stroke-width=".636" d="M 81.2285 303.7944 C 76.526 303.1859 71.8226 302.5593 67.1042 302.1738 C 65.9247 302.0776 64.6031 301.5704 64.5939 302.5393 C 64.6521 306.3133 65.2364 310.4727 67.2154 313.5495 C 68.3336 315.253 70.9367 315.4666 72.9668 315.6785 C 74.8613 315.8761 77.383 316.1933 78.7182 314.7888 C 81.199 312.1762 82.4716 308.1858 83.3416 304.5411 C 83.5558 303.6361 82.4052 303.9533 81.2285 303.7944 Z"/><g id="ID0.5972157916985452"><path id="ID0.30415194435045123" fill="#E5E5E5" stroke="#000" stroke-width=".36" d="M 56.6311 20.6708 L 61.6895 14.1212 L 58.6552 11.7823 L 53.5968 18.332 L 56.6311 20.6708 Z"/><path id="ID0.30415194435045123" fill="#E5E5E5" stroke="#000" stroke-width=".509" d="M 47.3579 28.2895 L 56.6702 20.8723 L 53.3728 16.7307 L 44.0605 24.1479 L 47.3579 28.2895 Z"/><path id="ID0.30415194435045123" fill="#E5E5E5" stroke="#000" stroke-linecap="round" stroke-width=".36" d="M 61.7619 14.109 L 61.9003 9.8751 L 58.4441 12.1935 L 61.7619 14.109 Z"/></g><g id="ID0.828692224342376"><g id="ID0.5983630460686982"><path id="ID0.30415194435045123" fill="#E5E5E5" stroke="#000" stroke-width=".36" d="M 53.9018 9.3461 L 60.5904 4.4729 L 62.8435 7.5715 L 56.1549 12.4447 L 53.9018 9.3461 Z"/><path id="ID0.30415194435045123" fill="#E5E5E5" stroke="#000" stroke-width=".509" d="M 45.9686 18.4242 L 53.6434 9.3231 L 57.6911 12.735 L 50.0163 21.8362 L 45.9686 18.4242 Z"/><path id="ID0.30415194435045123" fill="#E5E5E5" stroke="#000" stroke-width=".846" d="M 34.4077 36.9627 L 45.9422 18.8389 L 52.4314 22.9688 L 40.8968 41.0926 L 34.4077 36.9627 Z"/><path id="ID0.30415194435045123" fill="#E5E5E5" stroke="#000" stroke-linecap="round" stroke-width=".36" d="M 60.6223 4.3822 L 64.8584 4.3624 L 62.4443 7.7523 L 60.6223 4.3822 Z"/></g><g id="ID0.5983630460686982"><path id="ID0.30415194435045123" fill="#E5E5E5" stroke="#000" stroke-width=".36" d="M 52.7018 8.6961 L 59.3904 3.8229 L 61.6435 6.9215 L 54.9549 11.7947 L 52.7018 8.6961 Z"/><path id="ID0.30415194435045123" fill="#E5E5E5" stroke="#000" stroke-width=".509" d="M 44.7686 17.7742 L 52.4434 8.6731 L 56.4911 12.085 L 48.8163 21.1862 L 44.7686 17.7742 Z"/><path id="ID0.30415194435045123" fill="#E5E5E5" stroke="#000" stroke-width=".846" d="M 33.2077 36.3127 L 44.7422 18.1889 L 51.2314 22.3188 L 39.6968 40.4426 L 33.2077 36.3127 Z"/><path id="ID0.30415194435045123" fill="#E5E5E5" stroke="#000" stroke-linecap="round" stroke-width=".36" d="M 59.4223 3.7322 L 63.6584 3.7124 L 61.2443 7.1023 L 59.4223 3.7322 Z"/></g></g><g id="ID0.828692224342376"><g id="ID0.5983630460686982"><path id="ID0.30415194435045123" fill="#E5E5E5" stroke="#000" stroke-width=".36" d="M 51.7518 8.4961 L 58.4404 3.6229 L 60.6935 6.7215 L 54.0049 11.5947 L 51.7518 8.4961 Z"/><path id="ID0.30415194435045123" fill="#E5E5E5" stroke="#000" stroke-width=".509" d="M 43.8686 17.5742 L 51.5434 8.4731 L 55.5911 11.885 L 47.9163 20.9862 L 43.8686 17.5742 Z"/><path id="ID0.30415194435045123" fill="#E5E5E5" stroke="#000" stroke-width=".846" d="M 32.2577 36.1127 L 43.7922 17.9889 L 50.2814 22.1188 L 38.7468 40.2426 L 32.2577 36.1127 Z"/><path id="ID0.30415194435045123" fill="#E5E5E5" stroke="#000" stroke-linecap="round" stroke-width=".36" d="M 58.4723 3.5322 L 62.7084 3.5124 L 60.2943 6.9023 L 58.4723 3.5322 Z"/></g><g id="ID0.5983630460686982"><path id="ID0.30415194435045123" fill="#E5E5E5" stroke="#000" stroke-width=".36" d="M 50.5518 7.8461 L 57.2404 2.9729 L 59.4935 6.0715 L 52.8049 10.9447 L 50.5518 7.8461 Z"/><path id="ID0.30415194435045123" fill="#E5E5E5" stroke="#000" stroke-width=".509" d="M 42.6686 16.9242 L 50.3434 7.8231 L 54.3911 11.235 L 46.7163 20.3362 L 42.6686 16.9242 Z"/><path id="ID0.30415194435045123" fill="#E5E5E5" stroke="#000" stroke-width=".846" d="M 31.0577 35.4627 L 42.5922 17.3389 L 49.0814 21.4688 L 37.5468 39.5926 L 31.0577 35.4627 Z"/><path id="ID0.30415194435045123" fill="#E5E5E5" stroke="#000" stroke-linecap="round" stroke-width=".36" d="M 57.2723 2.8822 L 61.5084 2.8624 L 59.0943 6.2523 L 57.2723 2.8822 Z"/></g></g><g id="ID0.8707928555086255"><g id="ID0.5972157916985452"><path id="ID0.30415194435045123" fill="#E5E5E5" stroke="#000" stroke-width=".36" d="M 67.1189 20.5208 L 62.0605 13.9712 L 65.0948 11.6323 L 70.1532 18.182 L 67.1189 20.5208 Z"/><path id="ID0.30415194435045123" fill="#E5E5E5" stroke="#000" stroke-width=".509" d="M 76.3921 28.1395 L 67.0798 20.7223 L 70.3772 16.5807 L 79.6895 23.9979 L 76.3921 28.1395 Z"/><path id="ID0.30415194435045123" fill="#E5E5E5" stroke="#000" stroke-linecap="round" stroke-width=".36" d="M 61.9881 13.959 L 61.8497 9.7251 L 65.3059 12.0435 L 61.9881 13.959 Z"/></g><g id="ID0.828692224342376"><g id="ID0.5983630460686982"><path id="ID0.30415194435045123" fill="#E5E5E5" stroke="#000" stroke-width=".36" d="M 69.8982 9.1961 L 63.2096 4.3229 L 60.9565 7.4215 L 67.6451 12.2947 L 69.8982 9.1961 Z"/><path id="ID0.30415194435045123" fill="#E5E5E5" stroke="#000" stroke-width=".509" d="M 77.8314 18.2742 L 70.1566 9.1731 L 66.1089 12.585 L 73.7837 21.6862 L 77.8314 18.2742 Z"/><path id="ID0.30415194435045123" fill="#E5E5E5" stroke="#000" stroke-width=".846" d="M 89.4423 36.8127 L 77.9078 18.6889 L 71.4186 22.8188 L 82.9532 40.9426 L 89.4423 36.8127 Z"/><path id="ID0.30415194435045123" fill="#E5E5E5" stroke="#000" stroke-linecap="round" stroke-width=".36" d="M 63.1777 4.2322 L 58.9416 4.2124 L 61.3557 7.6023 L 63.1777 4.2322 Z"/></g><g id="ID0.5983630460686982"><path id="ID0.30415194435045123" fill="#E5E5E5" stroke="#000" stroke-width=".36" d="M 71.0982 8.5461 L 64.4096 3.6729 L 62.1565 6.7715 L 68.8451 11.6447 L 71.0982 8.5461 Z"/><path id="ID0.30415194435045123" fill="#E5E5E5" stroke="#000" stroke-width=".509" d="M 79.0314 17.6242 L 71.3566 8.5231 L 67.3089 11.935 L 74.9837 21.0362 L 79.0314 17.6242 Z"/><path id="ID0.30415194435045123" fill="#E5E5E5" stroke="#000" stroke-width=".846" d="M 90.6423 36.1627 L 79.1078 18.0389 L 72.6186 22.1688 L 84.1532 40.2926 L 90.6423 36.1627 Z"/><path id="ID0.30415194435045123" fill="#E5E5E5" stroke="#000" stroke-linecap="round" stroke-width=".36" d="M 64.3777 3.5822 L 60.1416 3.5624 L 62.5557 6.9523 L 64.3777 3.5822 Z"/></g></g><g id="ID0.828692224342376"><g id="ID0.5983630460686982"><path id="ID0.30415194435045123" fill="#E5E5E5" stroke="#000" stroke-width=".36" d="M 72.0482 8.5961 L 65.3596 3.7229 L 63.1065 6.8215 L 69.7951 11.6947 L 72.0482 8.5961 Z"/><path id="ID0.30415194435045123" fill="#E5E5E5" stroke="#000" stroke-width=".509" d="M 79.9814 17.6742 L 72.3066 8.5731 L 68.2589 11.985 L 75.9337 21.0862 L 79.9814 17.6742 Z"/><path id="ID0.30415194435045123" fill="#E5E5E5" stroke="#000" stroke-width=".846" d="M 91.5923 36.2127 L 80.0578 18.0889 L 73.5686 22.2188 L 85.1032 40.3426 L 91.5923 36.2127 Z"/><path id="ID0.30415194435045123" fill="#E5E5E5" stroke="#000" stroke-linecap="round" stroke-width=".36" d="M 65.3277 3.6322 L 61.0916 3.6124 L 63.5057 7.0023 L 65.3277 3.6322 Z"/></g><g id="ID0.5983630460686982"><path id="ID0.30415194435045123" fill="#E5E5E5" stroke="#000" stroke-width=".36" d="M 73.2482 7.9461 L 66.5596 3.0729 L 64.3065 6.1715 L 70.9951 11.0447 L 73.2482 7.9461 Z"/><path id="ID0.30415194435045123" fill="#E5E5E5" stroke="#000" stroke-width=".509" d="M 81.1814 17.0242 L 73.5066 7.9231 L 69.4589 11.335 L 77.1337 20.4362 L 81.1814 17.0242 Z"/><path id="ID0.30415194435045123" fill="#E5E5E5" stroke="#000" stroke-width=".846" d="M 92.7923 35.5627 L 81.2578 17.4389 L 74.7686 21.5688 L 86.3032 39.6926 L 92.7923 35.5627 Z"/><path id="ID0.30415194435045123" fill="#E5E5E5" stroke="#000" stroke-linecap="round" stroke-width=".36" d="M 66.5277 2.9822 L 62.2916 2.9624 L 64.7057 6.3523 L 66.5277 2.9822 Z"/></g></g></g><g id="ID0.16279939794912934"><path id="ID0.2824202640913427" fill="#570AFF" stroke="#000" stroke-linecap="round" stroke-width=".747" d="M 37.8699 290.3313 L 37.2471 282.5133 L 56.2511 313.7493 L 53.1839 315.6301 L 37.8699 290.3313 Z"/><path id="ID0.2824202640913427" fill="#570AFF" stroke="#000" stroke-linecap="round" stroke-width=".747" d="M 42.1297 280.4932 L 46.3816 280.5061 L 58.8684 300.6267 L 58.6184 306.2414 L 42.1297 280.4932 Z"/><path id="ID0.2824202640913427" fill="#570AFF" stroke="#000" stroke-linecap="round" stroke-width=".747" d="M 53.2582 280.5003 L 56.7478 280.4911 L 58.1323 288.7425 L 53.2582 280.5003 Z"/><path id="ID0.2824202640913427" fill="#570AFF" stroke="#000" stroke-linecap="round" stroke-width=".747" d="M 58.011 287.9766 L 56.4985 280.2811 L 46.7487 316.1423 L 50.2482 316.1265 L 58.011 287.9766 Z"/><path id="ID0.2824202640913427" fill="#570AFF" stroke="#000" stroke-linecap="round" stroke-width=".747" d="M 51.2532 280.4973 L 47.1241 280.4984 L 40.2584 305.8711 L 42.3753 311.4988 L 51.2532 280.4973 Z"/><path id="ID0.2824202640913427" fill="#570AFF" stroke="#000" stroke-linecap="round" stroke-width=".747" d="M 41.8854 280.5066 L 37.6286 280.5039 L 37.1193 283.3908 L 38.125 295.1353 L 41.8854 280.5066 Z"/><path id="ID0.5700520821847022" fill="#570AFF" stroke="#000" stroke-linecap="round" stroke-width=".412" d="M 37.4931 277.9377 L 55.7503 277.8871 L 56.3668 280.6363 L 37.4457 280.6869 L 37.4931 277.9377 Z"/></g><g id="ID0.16279939794912934"><path id="ID0.2824202640913427" fill="#570AFF" stroke="#000" stroke-linecap="round" stroke-width=".747" d="M 85.3301 290.0313 L 85.9529 282.2133 L 66.9489 313.4493 L 70.0161 315.3301 L 85.3301 290.0313 Z"/><path id="ID0.2824202640913427" fill="#570AFF" stroke="#000" stroke-linecap="round" stroke-width=".747" d="M 81.0703 280.1932 L 76.8184 280.2061 L 64.3316 300.3267 L 64.5816 305.9414 L 81.0703 280.1932 Z"/><path id="ID0.2824202640913427" fill="#570AFF" stroke="#000" stroke-linecap="round" stroke-width=".747" d="M 69.9418 280.2003 L 66.4522 280.1911 L 65.0677 288.4425 L 69.9418 280.2003 Z"/><path id="ID0.2824202640913427" fill="#570AFF" stroke="#000" stroke-linecap="round" stroke-width=".747" d="M 65.189 287.6766 L 66.7015 279.9811 L 76.4513 315.8423 L 72.9518 315.8265 L 65.189 287.6766 Z"/><path id="ID0.2824202640913427" fill="#570AFF" stroke="#000" stroke-linecap="round" stroke-width=".747" d="M 71.9468 280.1973 L 76.0759 280.1984 L 82.9416 305.5711 L 80.8247 311.1988 L 71.9468 280.1973 Z"/><path id="ID0.2824202640913427" fill="#570AFF" stroke="#000" stroke-linecap="round" stroke-width=".747" d="M 81.3146 280.2066 L 85.5714 280.2039 L 86.0807 283.0908 L 85.075 294.8353 L 81.3146 280.2066 Z"/><path id="ID0.5700520821847022" fill="#570AFF" stroke="#000" stroke-linecap="round" stroke-width=".412" d="M 85.6569 277.5877 L 67.3997 277.5371 L 66.7832 280.2863 L 85.7043 280.3369 L 85.6569 277.5877 Z"/></g></g></svg>